<svg width="50" height="13" viewBox="0 0 50 13" fill="none" xmlns="http://www.w3.org/2000/svg">
<path d="M31.6114 10.5816H30.245V9.5318C29.5201 10.1817 28.5536 10.5816 27.5037 10.5816C25.2375 10.5816 23.3961 8.74026 23.3961 6.47397C23.3961 4.20768 25.2375 2.36632 27.5037 2.36632C29.77 2.36632 31.6114 4.20768 31.6114 6.47397V10.5816ZM27.5037 0.933228C24.4959 0.933228 22.0547 3.37449 22.0547 6.38232C22.0547 9.39015 24.4959 11.8314 27.5037 11.8314C28.3286 11.8314 29.1118 11.6481 29.8117 11.3232L30.1783 11.4731L32.9528 12.6229V6.38232C32.9528 3.37449 30.5199 0.933228 27.5037 0.933228Z" fill="#0097E0"/>
<path d="M4.8242 9.64836C3.04949 9.64836 1.60807 8.20693 1.60807 6.43223C1.60807 4.65752 3.04949 3.2161 4.8242 3.2161C6.5989 3.2161 8.04033 4.65752 8.04033 6.43223C8.04033 8.20693 6.5989 9.64836 4.8242 9.64836ZM4.8242 1.60803C2.15797 1.60803 0 3.76601 0 6.43223C0 9.09845 2.15797 11.2564 4.8242 11.2564C6.05732 11.2564 7.18214 10.7898 8.04033 10.0233V11.2564H9.64839V6.43223C9.64839 3.76601 7.49042 1.60803 4.8242 1.60803Z" fill="#0097E0"/>
<path d="M12.5396 0H10.9315V11.2481H12.5396V0Z" fill="#0097E0"/>
<path d="M50 0H48.3919V11.2481H50V0Z" fill="#0097E0"/>
<path d="M18.6469 9.64836C16.8722 9.64836 15.4308 8.20693 15.4308 6.43223C15.4308 4.65752 16.8722 3.2161 18.6469 3.2161C19.5301 3.2161 20.3383 3.57437 20.9215 4.15761L22.063 3.01613C21.1881 2.14128 19.9883 1.60803 18.6552 1.60803C15.989 1.60803 13.831 3.76601 13.831 6.43223C13.831 9.09845 15.989 11.2564 18.6552 11.2564C19.9883 11.2564 21.1965 10.7148 22.063 9.84833L20.9215 8.70685C20.3383 9.29009 19.5384 9.64836 18.6469 9.64836Z" fill="#0097E0"/>
<path d="M35.8524 1.60807V0H34.2443V11.2565H35.8524V3.21613H37.4604V1.60807H35.8524Z" fill="#0097E0"/>
<path d="M42.2763 3.2161C43.7677 3.2161 45.0258 4.24093 45.3841 5.62403H39.1685C39.5267 4.24093 40.7849 3.2161 42.2763 3.2161ZM44.7175 8.52355C44.126 9.2151 43.2595 9.64836 42.2846 9.64836C40.7932 9.64836 39.5351 8.62353 39.1768 7.24043H47.0338C47.0755 6.98214 47.1005 6.70718 47.1005 6.43223C47.1005 3.76601 44.9425 1.60803 42.2763 1.60803C39.6101 1.60803 37.4521 3.76601 37.4521 6.43223C37.4521 9.09845 39.6101 11.2564 42.2763 11.2564C44.1926 11.2564 45.8424 10.1399 46.6256 8.52355H44.7175Z" fill="#0097E0"/>
<path d="M27.5038 3.67444C25.9623 3.67444 24.7042 4.93256 24.7042 6.47397C24.7042 8.01538 25.9623 9.26517 27.5038 9.26517C29.0452 9.26517 30.295 8.01538 30.295 6.47397C30.295 4.92423 29.0452 3.67444 27.5038 3.67444Z" fill="#0097E0"/>
</svg>
