<svg width="13" height="14" viewBox="0 0 13 14" fill="none" xmlns="http://www.w3.org/2000/svg">
<path d="M11.0464 2.21758C10.6478 2.09193 10.1999 2.03093 9.68239 1.999C9.09087 1.9625 8.37203 1.9625 7.49011 1.9625H5.49948C4.45728 1.9625 3.64025 1.96249 2.98753 2.02455C2.32222 2.08781 1.77746 2.21897 1.29722 2.51326C0.794321 2.82144 0.371497 3.24426 0.0633184 3.74716C0.0524003 3.76498 0.0417068 3.78288 0.031233 3.80088C0.0814741 2.86284 0.2127 2.24156 0.555454 1.74973C0.734821 1.49235 0.951929 1.26601 1.19881 1.07901C1.96323 0.5 3.05368 0.5 5.23456 0.5H8.72423C9.82092 0.5 10.3693 0.5 10.71 0.855192C10.9716 1.12799 11.0323 1.52848 11.0464 2.21758Z" fill="#2E413C"/>
<path d="M0.47892 4.00188C0 4.7834 0 5.84727 0 7.975C0 10.1027 0 11.1666 0.47892 11.9481C0.746901 12.3854 1.11457 12.7531 1.55188 13.0211C2.33341 13.5 3.39727 13.5 5.525 13.5H7.475C9.60273 13.5 10.6666 13.5 11.4481 13.0211C11.8854 12.7531 12.2531 12.3854 12.5211 11.9481C12.8356 11.4349 12.9436 10.7998 12.9806 9.8216H8.86369C7.6154 9.8216 6.60347 8.80967 6.60347 7.56138C6.60347 6.31309 7.6154 5.30115 8.86369 5.30115H12.9205C12.8553 4.76317 12.7368 4.35389 12.5211 4.00188C12.2531 3.56457 11.8854 3.1969 11.4481 2.92892C11.3236 2.85263 11.192 2.7885 11.05 2.73458C10.3007 2.45 9.2638 2.45 7.475 2.45H5.525C3.39727 2.45 2.33341 2.45 1.55188 2.92892C1.11457 3.1969 0.746901 3.56457 0.47892 4.00188Z" fill="#2E413C"/>
<path fill-rule="evenodd" clip-rule="evenodd" d="M12.9856 6.27615H8.86369C8.15388 6.27615 7.57847 6.85156 7.57847 7.56138C7.57847 8.27119 8.15388 8.8466 8.86369 8.8466H12.9985C13 8.57739 13 8.28768 13 7.975C13 7.3138 13 6.75533 12.9856 6.27615ZM8.86369 7.07388C8.59445 7.07388 8.37619 7.29214 8.37619 7.56138C8.37619 7.83061 8.59445 8.04888 8.86369 8.04888H10.6364C10.9057 8.04888 11.1239 7.83061 11.1239 7.56138C11.1239 7.29214 10.9057 7.07388 10.6364 7.07388H8.86369Z" fill="#2E413C"/>
</svg>
