<svg width="15" height="16" viewBox="0 0 15 16" fill="none" xmlns="http://www.w3.org/2000/svg">
<path fill-rule="evenodd" clip-rule="evenodd" d="M3.2 7.40005C2.86863 7.40005 2.6 7.66868 2.6 8.00005C2.6 8.33142 2.86863 8.60005 3.2 8.60005L9.6 8.60005L9.6 10.4C9.6 11.1433 9.6 11.5149 9.55075 11.8258C9.27967 13.5374 7.93731 14.8797 6.22574 15.1508C5.91481 15.2 5.5432 15.2 4.8 15.2C4.05679 15.2 3.68519 15.2 3.37426 15.1508C1.66269 14.8797 0.320332 13.5374 0.0492455 11.8258C-6.91876e-07 11.5149 -6.75633e-07 11.1433 -6.43147e-07 10.4L-4.33332e-07 5.60005C-4.00846e-07 4.85684 -3.84602e-07 4.48524 0.0492458 4.17431C0.320332 2.46274 1.66269 1.12038 3.37426 0.849295C3.68519 0.800048 4.0568 0.800048 4.8 0.800048C5.5432 0.800048 5.91481 0.800048 6.22574 0.849295C7.93731 1.12038 9.27967 2.46274 9.55075 4.17431C9.6 4.48524 9.6 4.85684 9.6 5.60005L9.6 7.40005L3.2 7.40005ZM9.6 7.40005L13.4484 7.40005C13.1864 7.14192 12.8008 6.83505 12.2376 6.38847L10.8272 5.2702C10.5676 5.06432 10.524 4.68693 10.7299 4.42727C10.9357 4.16762 11.3131 4.12402 11.5728 4.3299L13.0118 5.4709C13.5498 5.89745 13.9937 6.24942 14.31 6.56446C14.6345 6.88775 14.9036 7.24657 14.9766 7.70511C14.9922 7.8028 15 7.90134 15 8.00005C15 8.09876 14.9922 8.1973 14.9766 8.29499C14.9036 8.75352 14.6345 9.11235 14.31 9.43564C13.9937 9.75067 13.5498 10.1026 13.0118 10.5292L11.5728 11.6702C11.3131 11.8761 10.9357 11.8325 10.7299 11.5728C10.524 11.3132 10.5676 10.9358 10.8272 10.7299L12.2376 9.61162C12.8008 9.16505 13.1864 8.85818 13.4484 8.60005L9.6 8.60005L9.6 7.40005Z" fill="#DC5B5B"/>
</svg>
