<svg width="10" height="12" viewBox="0 0 10 12" fill="none" xmlns="http://www.w3.org/2000/svg">
<path fill-rule="evenodd" clip-rule="evenodd" d="M9.66206 0.994983C10.1127 1.46778 10.1127 2.23435 9.66206 2.70715L6.63179 5.88669L9.66204 9.06622C10.1126 9.53902 10.1126 10.3056 9.66204 10.7784C9.21144 11.2512 8.48086 11.2512 8.03026 10.7784L5.00001 7.59886L1.96975 10.7784C1.51915 11.2512 0.788573 11.2512 0.337968 10.7784C-0.112636 10.3056 -0.112636 9.53902 0.337968 9.06622L3.36822 5.88669L0.337954 2.70715C-0.112651 2.23435 -0.112651 1.46779 0.337954 0.994984C0.788559 0.522182 1.51913 0.522182 1.96974 0.994984L5.00001 4.17453L8.03027 0.994983C8.48088 0.52218 9.21145 0.52218 9.66206 0.994983Z" fill="#2E413C"/>
</svg>
