<svg width="25" height="22" viewBox="0 0 25 22" fill="none" xmlns="http://www.w3.org/2000/svg">
<path d="M4.98606 7.44231C8.74722 6.72057 6.14333 1.8127 11.7851 0.802258C13.8103 0.439536 17.6004 1.84157 21.7666 4.26663C26.9744 7.29796 25.0782 14.3102 21.7666 13.6493C18.1501 12.9276 15.2569 14.3711 14.2443 18.9902C13.2317 23.6094 2.52684 20.4337 0.646256 15.9589C-1.23432 11.4841 1.2249 8.16406 4.98606 7.44231Z" fill="#8CE6CD" fill-opacity="0.3"/>
<rect x="2.23798" y="0.746323" width="19.8836" height="19.8836" rx="9.94182" fill="#5BDCB7"/>
<path fill-rule="evenodd" clip-rule="evenodd" d="M17.2701 7.18834C17.6317 7.48253 17.6805 8.0072 17.3792 8.36023L14.277 11.9952C13.7043 12.6663 13.2167 13.2377 12.7682 13.6331C12.2919 14.0531 11.7441 14.3808 11.0436 14.3808C10.343 14.3808 9.79522 14.0531 9.3189 13.6331C8.87044 13.2377 8.38286 12.6663 7.81013 11.9952C7.79692 11.9797 7.78366 11.9641 7.77035 11.9485L6.98031 11.0228C6.67902 10.6698 6.72787 10.1451 7.08942 9.85095C7.45096 9.55677 7.9883 9.60446 8.28959 9.95749L9.07964 10.8832C9.70319 11.6138 10.1136 12.0916 10.4611 12.398C10.7911 12.689 10.9459 12.7167 11.0436 12.7167C11.1413 12.7167 11.296 12.689 11.626 12.398C11.9735 12.0916 12.3839 11.6138 13.0075 10.8832L16.0699 7.29488C16.3712 6.94185 16.9086 6.89416 17.2701 7.18834Z" fill="white"/>
</svg>
