<svg width="16" height="16" viewBox="0 0 16 16" fill="none" xmlns="http://www.w3.org/2000/svg">
<rect width="16" height="16" rx="8" fill="#5BDCB7"/>
<path fill-rule="evenodd" clip-rule="evenodd" d="M12.0962 5.18377C12.3871 5.4205 12.4264 5.84269 12.184 6.12676L9.68769 9.05172C9.22682 9.59178 8.83448 10.0515 8.4736 10.3697C8.09032 10.7077 7.64953 10.9714 7.0858 10.9714C6.52207 10.9714 6.08128 10.7077 5.698 10.3697C5.33713 10.0515 4.94479 9.59178 4.48392 9.05173C4.47329 9.03926 4.46262 9.02676 4.45191 9.01421L3.81618 8.26932C3.57373 7.98524 3.61304 7.56305 3.90397 7.32632C4.19491 7.08959 4.62729 7.12797 4.86973 7.41205L5.50547 8.15695C6.00723 8.74487 6.33748 9.1293 6.61712 9.37587C6.88268 9.61002 7.00719 9.63233 7.0858 9.63233C7.16441 9.63233 7.28892 9.61002 7.55448 9.37587C7.83413 9.1293 8.16437 8.74487 8.66613 8.15695L11.1304 5.2695C11.3729 4.98542 11.8053 4.94704 12.0962 5.18377Z" fill="white"/>
</svg>
