<svg width="12" height="14" viewBox="0 0 12 14" fill="none" xmlns="http://www.w3.org/2000/svg">
<path d="M4.71086 7C4.71086 6.28799 5.28805 5.7108 6.00005 5.7108C6.71206 5.7108 7.28925 6.28799 7.28925 7C7.28925 7.712 6.71206 8.2892 6.00005 8.2892C5.28805 8.2892 4.71086 7.712 4.71086 7Z" fill="#2E413C"/>
<path fill-rule="evenodd" clip-rule="evenodd" d="M4.04347 1.9763C4.60522 0.00790167 7.39482 0.00790095 7.95658 1.9763C8.13063 2.58618 8.7572 2.94793 9.3724 2.79372C11.358 2.29602 12.7528 4.71188 11.329 6.18257C10.8878 6.63825 10.8878 7.36175 11.329 7.81743C12.7528 9.28812 11.358 11.704 9.3724 11.2063C8.7572 11.0521 8.13063 11.4138 7.95658 12.0237C7.39482 13.9921 4.60522 13.9921 4.04347 12.0237C3.86942 11.4138 3.24284 11.0521 2.62765 11.2063C0.642088 11.704 -0.752711 9.28812 0.671091 7.81743C1.11224 7.36175 1.11224 6.63825 0.671092 6.18257C-0.752711 4.71188 0.642088 2.29602 2.62764 2.79372C3.24284 2.94793 3.86942 2.58618 4.04347 1.9763ZM6.00005 4.85133C4.81338 4.85133 3.85139 5.81332 3.85139 7C3.85139 8.18667 4.81338 9.14866 6.00005 9.14866C7.18673 9.14866 8.14872 8.18667 8.14872 7C8.14872 5.81332 7.18673 4.85133 6.00005 4.85133Z" fill="#2E413C"/>
</svg>
