<svg width="25" height="26" viewBox="0 0 25 26" fill="none" xmlns="http://www.w3.org/2000/svg">
<path d="M22.9838 13C22.9838 15.0735 22.369 17.1005 21.217 18.8245C20.065 20.5486 18.4277 21.8923 16.512 22.6858C14.5963 23.4793 12.4884 23.6869 10.4547 23.2824C8.42101 22.8779 6.55297 21.8794 5.08677 20.4132C3.62058 18.947 2.62208 17.079 2.21756 15.0453C1.81304 13.0116 2.02066 10.9037 2.81415 8.98801C3.60765 7.07233 4.9514 5.43498 6.67546 4.28299C8.39952 3.13101 10.4265 2.51614 12.5 2.51614C15.2805 2.51614 17.9471 3.62069 19.9132 5.5868C21.8793 7.5529 22.9838 10.2195 22.9838 13Z" fill="white"/>
<path d="M22.9839 13C22.9832 10.7804 22.2781 8.61827 20.97 6.82502C19.662 5.03178 17.8185 3.69995 15.7052 3.02136C13.5919 2.34277 11.3177 2.35243 9.21016 3.04895C7.10266 3.74547 5.2706 5.0929 3.97784 6.8972C5.99685 5.45043 8.46403 4.76769 10.9396 4.97068C13.4151 5.17368 15.7381 6.24922 17.4945 8.00557C19.2508 9.76191 20.3263 12.0849 20.5293 14.5605C20.7323 17.036 20.0496 19.5032 18.6028 21.5222C19.9588 20.553 21.0637 19.2741 21.8257 17.7918C22.5877 16.3095 22.9848 14.6667 22.9839 13Z" fill="#F2F7F6"/>
<path d="M12.5 0.5C14.9723 0.5 17.389 1.23311 19.4446 2.60663C21.5002 3.98014 23.1024 5.93238 24.0485 8.21645C24.9946 10.5005 25.2421 13.0139 24.7598 15.4386C24.2775 17.8634 23.087 20.0907 21.3388 21.8388C19.5907 23.587 17.3634 24.7775 14.9386 25.2598C12.5139 25.7421 10.0005 25.4946 7.71645 24.5485C5.43238 23.6024 3.48014 22.0002 2.10663 19.9446C0.733112 17.889 0 15.4723 0 13C0 9.68479 1.31696 6.50537 3.66116 4.16116C6.00537 1.81696 9.18479 0.5 12.5 0.5ZM12.5 23.4839C14.5735 23.4839 16.6004 22.869 18.3245 21.717C20.0486 20.565 21.3923 18.9277 22.1858 17.012C22.9793 15.0963 23.1869 12.9884 22.7824 10.9547C22.3779 8.92102 21.3794 7.05297 19.9132 5.58678C18.447 4.12059 16.579 3.12209 14.5453 2.71757C12.5116 2.31305 10.4037 2.52067 8.48799 3.31416C6.57231 4.10766 4.93496 5.45141 3.78298 7.17547C2.631 8.89953 2.01613 10.9265 2.01613 13C2.01613 15.7805 3.12067 18.4471 5.08678 20.4132C7.05289 22.3793 9.7195 23.4839 12.5 23.4839Z" fill="#8CE6CD"/>
<path d="M13.3064 7.03226V12.7903C13.3078 12.9777 13.242 13.1594 13.1209 13.3024L10.5887 16.3831C10.513 16.4686 10.4182 16.5352 10.3121 16.5775C10.2059 16.6197 10.0913 16.6364 9.97752 16.6262C9.86372 16.616 9.75391 16.5792 9.65695 16.5187C9.56 16.4583 9.4786 16.3759 9.41933 16.2782C9.31153 16.1011 9.26496 15.8934 9.28682 15.6872C9.30868 15.481 9.39775 15.2877 9.5403 15.1371L11.5968 12.7097C11.6602 12.6372 11.6947 12.5439 11.6935 12.4476V7.03226C11.6829 6.91992 11.6958 6.8066 11.7315 6.69955C11.7671 6.5925 11.8248 6.49408 11.9007 6.4106C11.9766 6.32713 12.0691 6.26043 12.1723 6.2148C12.2755 6.16916 12.3871 6.14558 12.5 6.14558C12.6128 6.14558 12.7244 6.16916 12.8276 6.2148C12.9308 6.26043 13.0233 6.32713 13.0993 6.4106C13.1752 6.49408 13.2328 6.5925 13.2685 6.69955C13.3042 6.8066 13.3171 6.91992 13.3064 7.03226Z" fill="#2E413C"/>
<path d="M9.41933 16.2782C9.31152 16.1011 9.26496 15.8934 9.28682 15.6872C9.30868 15.481 9.39774 15.2877 9.5403 15.1371L11.5967 12.7097C11.6602 12.6372 11.6947 12.5439 11.6935 12.4476V7.03227C11.6935 6.86734 11.7366 6.70526 11.8185 6.56211C11.7773 6.55407 11.7355 6.54949 11.6935 6.5484C11.4691 6.55958 11.2583 6.65919 11.1071 6.82544C10.956 6.9917 10.8769 7.21105 10.8871 7.4355V12.8508C10.8882 12.9471 10.8538 13.0405 10.7903 13.1129L8.73384 15.5403C8.59129 15.6909 8.50222 15.8842 8.48037 16.0904C8.45851 16.2966 8.50507 16.5043 8.61288 16.6815C8.67214 16.7791 8.75354 16.8615 8.8505 16.922C8.94745 16.9824 9.05726 17.0192 9.17106 17.0294C9.28486 17.0396 9.39946 17.0229 9.50562 16.9807C9.61178 16.9385 9.70653 16.8719 9.78223 16.7863L9.92336 16.6145C9.8207 16.5963 9.72292 16.557 9.63618 16.4991C9.54944 16.4412 9.47561 16.366 9.41933 16.2782Z" fill="#F2F7F6"/>
<path d="M12.5 1.70969C10.267 1.70969 8.08409 2.37185 6.22741 3.61245C4.37073 4.85304 2.92362 6.61635 2.06908 8.67938C1.21455 10.7424 0.990962 13.0125 1.4266 15.2026C1.86224 17.3927 2.93754 19.4045 4.51652 20.9835C6.0955 22.5624 8.10724 23.6377 10.2973 24.0734C12.4875 24.509 14.7576 24.2854 16.8206 23.4309C18.8836 22.5764 20.6469 21.1292 21.8875 19.2726C23.1281 17.4159 23.7903 15.233 23.7903 13C23.7903 10.0056 22.6008 7.13389 20.4834 5.01654C18.3661 2.8992 15.4944 1.70969 12.5 1.70969ZM12.5 23.4839C10.4265 23.4839 8.39952 22.869 6.67545 21.717C4.95139 20.565 3.60765 18.9277 2.81415 17.012C2.02065 15.0963 1.81303 12.9884 2.21756 10.9547C2.62208 8.92103 3.62057 7.05298 5.08676 5.58679C6.55296 4.1206 8.42101 3.1221 10.4547 2.71758C12.4883 2.31306 14.5963 2.52068 16.512 3.31417C18.4277 4.10767 20.065 5.45142 21.217 7.17548C22.369 8.89954 22.9838 10.9265 22.9838 13C22.9838 15.7805 21.8793 18.4471 19.9132 20.4132C17.9471 22.3793 15.2805 23.4839 12.5 23.4839Z" fill="#5BDCB7"/>
<path d="M12.9032 4.53227V2.52622C12.7693 2.52139 12.6351 2.51614 12.5 2.51614C12.3649 2.51614 12.2306 2.52139 12.0968 2.52622V4.53227H12.9032ZM12.0968 21.4677V23.4738C12.2306 23.4786 12.3649 23.4839 12.5 23.4839C12.6351 23.4839 12.7693 23.4786 12.9032 23.4738V21.4677H12.0968ZM22.9738 12.5968H20.9677V13.4032H22.9738C22.9786 13.2694 22.9838 13.1351 22.9838 13C22.9838 12.8649 22.9786 12.7307 22.9738 12.5968ZM4.03224 12.5968H2.02619C2.02136 12.7307 2.01611 12.8649 2.01611 13C2.01611 13.1351 2.02136 13.2694 2.02619 13.4032H4.03224V12.5968Z" fill="#2E413C"/>
</svg>
