<svg width="31" height="25" viewBox="0 0 31 25" fill="none" xmlns="http://www.w3.org/2000/svg">
<path d="M24.2296 16.6684C19.7162 17.5394 22.8409 23.4621 16.0708 24.6815C13.6405 25.1192 9.0924 23.4273 4.09295 20.5007C-2.15637 16.8426 0.11909 8.38029 4.09294 9.17784C8.43276 10.0488 11.9046 8.30684 13.1197 2.73248C14.3349 -2.84188 27.1807 0.990493 29.4374 6.39065C31.6941 11.7908 28.743 15.7974 24.2296 16.6684Z" fill="#8CE6CD" fill-opacity="0.3"/>
<path d="M5.41053 9.85118C11.3262 9.48419 17.242 9.48419 23.1577 9.85118C23.6941 9.88447 24.136 10.2875 24.216 10.819C24.7351 14.2684 24.7351 17.7179 24.216 21.1674C24.136 21.6988 23.6941 22.1019 23.1577 22.1352C17.242 22.5021 11.3262 22.5021 5.41053 22.1352C4.87412 22.1019 4.4322 21.6989 4.35224 21.1674C3.83311 17.7179 3.83311 14.2684 4.35224 10.819C4.4322 10.2875 4.87412 9.88442 5.41053 9.85118Z" fill="#5BDCB7"/>
<path d="M7.53744 20.8671C7.53744 19.7964 6.66947 18.9285 5.59879 18.9285C5.52218 18.9285 5.44678 18.9334 5.37249 18.942C5.19879 16.9793 5.19879 15.0069 5.37249 13.0441C5.44678 13.0528 5.52218 13.0577 5.59879 13.0577C6.66947 13.0577 7.53744 12.1897 7.53744 11.1191C7.53744 11.084 7.53641 11.0492 7.53456 11.0145C9.78396 10.9077 12.046 10.853 14.2841 10.853C16.4456 10.853 18.6296 10.9034 20.8027 11.0031C20.8004 11.0415 20.799 11.0801 20.799 11.1191C20.799 12.1897 21.6669 13.0577 22.7376 13.0577C22.8942 13.0577 23.0464 13.0386 23.1922 13.0036C23.3707 14.9932 23.3707 16.9929 23.1922 18.9826C23.0463 18.9475 22.8942 18.9284 22.7376 18.9284C21.6669 18.9284 20.799 19.7964 20.799 20.8671C20.799 20.906 20.8004 20.9447 20.8027 20.9831C18.6296 21.0827 16.4456 21.1331 14.2841 21.1331C12.046 21.1331 9.78396 21.0784 7.53456 20.9716C7.53637 20.937 7.53744 20.9022 7.53744 20.8671Z" fill="#8CE6CD"/>
<path d="M14.2842 20.0528C15.9293 20.0528 17.263 18.2352 17.263 15.9932C17.263 13.7511 15.9293 11.9335 14.2842 11.9335C12.639 11.9335 11.3054 13.7511 11.3054 15.9932C11.3054 18.2352 12.639 20.0528 14.2842 20.0528Z" fill="#5BDCB7"/>
<path d="M12.8595 17.939C13.2569 18.1531 13.5338 18.2245 13.8748 18.2459V18.427C13.8748 18.532 13.9173 18.6269 13.9861 18.6958C14.0549 18.7645 14.1499 18.8071 14.2549 18.8071C14.4648 18.8071 14.635 18.6369 14.635 18.427V18.2169C15.3725 18.073 15.8217 17.5296 15.8966 16.9936C15.9853 16.359 15.5807 15.8145 14.8659 15.6064C14.7899 15.5843 14.7125 15.5613 14.635 15.5375V14.4883C14.8416 14.5384 14.9635 14.6224 14.9724 14.6287C15.1436 14.7502 15.3809 14.7101 15.5024 14.5389C15.624 14.3678 15.5838 14.1305 15.4127 14.0089C15.3396 13.9571 15.0614 13.7777 14.6349 13.7134V13.5593C14.6349 13.3493 14.4648 13.1791 14.2549 13.1792C14.0449 13.1792 13.8747 13.3493 13.8748 13.5593V13.7374C13.8449 13.7436 13.8147 13.7503 13.7842 13.7579C13.2724 13.8849 12.89 14.2774 12.8099 14.7579C12.7412 15.17 12.91 15.5626 13.2504 15.7825C13.4122 15.887 13.6099 15.9829 13.8748 16.083V17.4839C13.6512 17.4648 13.4827 17.4113 13.2201 17.2698C13.0353 17.1702 12.8048 17.2393 12.7052 17.4241C12.6237 17.5755 12.6553 17.7575 12.7709 17.8732C12.7964 17.8987 12.8261 17.9211 12.8595 17.939ZM13.6629 15.144C13.5478 15.0696 13.5488 14.9485 13.5598 14.883C13.5808 14.7568 13.675 14.6052 13.8748 14.5254V15.2591C13.796 15.2219 13.7242 15.1836 13.6629 15.144ZM14.6534 16.3362C15 16.4371 15.1787 16.6384 15.1437 16.8883C15.1141 17.1002 14.9329 17.322 14.6349 17.4286V16.3308C14.6412 16.3327 14.6471 16.3344 14.6534 16.3362Z" fill="#8CE6CD"/>
<path d="M8.05872 16.9953C8.61214 16.9953 9.06078 16.5467 9.06078 15.9932C9.06078 15.4398 8.61214 14.9912 8.05872 14.9912C7.5053 14.9912 7.05667 15.4398 7.05667 15.9932C7.05667 16.5467 7.5053 16.9953 8.05872 16.9953Z" fill="#5BDCB7"/>
<path d="M20.5097 16.9947C21.0631 16.9947 21.5117 16.546 21.5117 15.9926C21.5117 15.4392 21.0631 14.9906 20.5097 14.9906C19.9562 14.9906 19.5076 15.4392 19.5076 15.9926C19.5076 16.546 19.9562 16.9947 20.5097 16.9947Z" fill="#5BDCB7"/>
<path d="M8.54013 3.36483C14.4558 2.99784 20.3716 2.99784 26.2873 3.36483C26.8237 3.39812 27.2657 3.80113 27.3456 4.33262C27.8647 7.7821 27.8647 11.2315 27.3456 14.681C27.2656 15.2125 26.8237 15.6155 26.2873 15.6488C20.3716 16.0158 14.4558 16.0158 8.54013 15.6488C8.00373 15.6155 7.5618 15.2125 7.48185 14.681C6.96271 11.2315 6.96271 7.78206 7.48185 4.33262C7.56185 3.80118 8.00373 3.39812 8.54013 3.36483Z" fill="#5BDCB7"/>
<path d="M10.6671 14.3808C10.6671 13.3101 9.79911 12.4422 8.72843 12.4422C8.65182 12.4422 8.57642 12.4471 8.50213 12.4557C8.32843 10.493 8.32843 8.52058 8.50213 6.55784C8.57642 6.56648 8.65182 6.5714 8.72843 6.5714C9.79911 6.5714 10.6671 5.70343 10.6671 4.63275C10.6671 4.5977 10.6661 4.56288 10.6642 4.52824C12.9136 4.4214 15.1756 4.36671 17.4138 4.36671C19.5753 4.36671 21.7592 4.41709 23.9324 4.51677C23.9301 4.55517 23.9286 4.5938 23.9286 4.63275C23.9286 5.70343 24.7966 6.5714 25.8672 6.5714C26.0239 6.5714 26.176 6.55232 26.3218 6.51726C26.5004 8.50693 26.5004 10.5066 26.3218 12.4963C26.176 12.4612 26.0239 12.4421 25.8672 12.4421C24.7966 12.4421 23.9286 13.3101 23.9286 14.3808C23.9286 14.4197 23.9301 14.4584 23.9324 14.4968C21.7592 14.5964 19.5752 14.6468 17.4138 14.6468C15.1756 14.6468 12.9136 14.5921 10.6642 14.4853C10.6661 14.4507 10.6671 14.4159 10.6671 14.3808Z" fill="#8CE6CD"/>
<path d="M17.4138 13.5663C19.059 13.5663 20.3926 11.7488 20.3926 9.50673C20.3926 7.26467 19.059 5.44712 17.4138 5.44712C15.7687 5.44712 14.435 7.26467 14.435 9.50673C14.435 11.7488 15.7687 13.5663 17.4138 13.5663Z" fill="#5BDCB7"/>
<path d="M11.1884 10.5088C11.7418 10.5088 12.1904 10.0602 12.1904 9.50674C12.1904 8.95332 11.7418 8.50469 11.1884 8.50469C10.635 8.50469 10.1863 8.95332 10.1863 9.50674C10.1863 10.0602 10.635 10.5088 11.1884 10.5088Z" fill="#5BDCB7"/>
<path d="M23.6393 10.5088C24.1927 10.5088 24.6413 10.0602 24.6413 9.50676C24.6413 8.95334 24.1927 8.50471 23.6393 8.50471C23.0858 8.50471 22.6372 8.95334 22.6372 9.50676C22.6372 10.0602 23.0858 10.5088 23.6393 10.5088Z" fill="#5BDCB7"/>
<path d="M15.9892 11.4527C16.3866 11.6668 16.6634 11.7382 17.0044 11.7596V11.9407C17.0044 12.0457 17.0469 12.1407 17.1158 12.2095C17.1845 12.2782 17.2796 12.3208 17.3845 12.3208C17.5945 12.3208 17.7646 12.1506 17.7646 11.9407V11.7306C18.5021 11.5867 18.9513 11.0433 19.0263 10.5073C19.1149 9.87269 18.7104 9.3282 17.9956 9.1201C17.9196 9.09795 17.8422 9.07497 17.7646 9.05125V8.00197C17.9713 8.05207 18.0932 8.13602 18.1021 8.14238C18.2732 8.26393 18.5105 8.22377 18.6321 8.05263C18.7536 7.88153 18.7135 7.64423 18.5423 7.52263C18.4693 7.47077 18.191 7.29136 17.7646 7.22715V7.07296C17.7646 6.86305 17.5944 6.69283 17.3845 6.69288C17.1746 6.69288 17.0044 6.86305 17.0044 7.07296V7.25111C16.9745 7.25728 16.9444 7.26402 16.9138 7.27163C16.4021 7.39862 16.0196 7.79114 15.9395 8.27164C15.8708 8.68371 16.0397 9.07627 16.3801 9.29616C16.5418 9.40068 16.7396 9.49665 17.0044 9.59666V10.9976C16.7808 10.9785 16.6124 10.925 16.3498 10.7835C16.165 10.6839 15.9344 10.753 15.8348 10.9378C15.7533 11.0892 15.7849 11.2712 15.9005 11.3869C15.9261 11.4124 15.9558 11.4347 15.9892 11.4527ZM16.7926 8.65761C16.6775 8.58328 16.6785 8.46214 16.6894 8.39663C16.7105 8.27043 16.8047 8.11884 17.0045 8.03902V8.77271C16.9257 8.73557 16.8539 8.69726 16.7926 8.65761ZM17.7831 9.84993C18.1297 9.95083 18.3084 10.1521 18.2734 10.402C18.2438 10.6139 18.0626 10.8357 17.7646 10.9423V9.84446C17.7708 9.84631 17.7767 9.84808 17.7831 9.84993Z" fill="#8CE6CD"/>
<path d="M7.44544 3.25308C7.21972 3.42291 7.12437 3.72324 7.2109 3.99877C7.40495 4.61173 6.72414 5.12505 6.21755 4.74445C5.99046 4.57426 5.6839 4.57502 5.45874 4.74445C4.95262 5.12451 4.27156 4.6132 4.46496 3.99877C4.55136 3.72364 4.4567 3.42336 4.23043 3.25308C3.72349 2.87199 3.98548 2.04675 4.61005 2.04675C4.88963 2.04675 5.13742 1.86056 5.22377 1.58566C5.41791 0.971181 6.25903 0.971714 6.45209 1.58566C6.53844 1.86056 6.78632 2.04675 7.06625 2.04675C7.69103 2.04675 7.95177 2.87244 7.44544 3.25308Z" fill="#DA8CE6"/>
<path d="M26.1779 17.833C26.0311 17.8922 25.9359 18.041 25.9428 18.2027C25.9589 18.5627 25.5159 18.7418 25.2968 18.4623C25.1986 18.3372 25.0325 18.2932 24.886 18.3522C24.5569 18.4846 24.2623 18.1089 24.4562 17.8044C24.5428 17.6679 24.5352 17.4916 24.4374 17.3666C24.2182 17.0868 24.4797 16.678 24.8179 16.7686C24.9692 16.8092 25.1304 16.7443 25.217 16.608C25.4113 16.3035 25.8666 16.4258 25.882 16.7862C25.8889 16.9475 25.9961 17.0843 26.1476 17.1249C26.4859 17.2155 26.5073 17.7004 26.1779 17.833Z" fill="#DA8CE6"/>
</svg>
