<svg width="10" height="11" viewBox="0 0 10 11" fill="none" xmlns="http://www.w3.org/2000/svg">
<path d="M9.95837 3.18801C10.2594 1.61852 8.88146 0.240612 7.31197 0.541615L2.8058 1.40583C1.82624 1.59369 1.04285 2.33517 0.793966 3.29864C0.29705 5.22225 2.08101 6.9803 3.9965 6.417C4.04939 6.40144 4.09854 6.45059 4.08298 6.50349C3.51969 8.41898 5.27773 10.203 7.20136 9.70603C8.16483 9.45714 8.90631 8.67375 9.09417 7.69419L9.95837 3.18801Z" fill="#5BDCB7"/>
<path d="M1.32714 7.60564C1.4714 7.46139 1.4714 7.2275 1.32714 7.08324C1.18288 6.93898 0.948993 6.93898 0.804734 7.08324L0.108194 7.77978C-0.0360646 7.92404 -0.0360646 8.15793 0.108194 8.30218C0.252452 8.44644 0.486341 8.44644 0.630599 8.30218L1.32714 7.60564Z" fill="#5BDCB7"/>
<path d="M3.06849 7.43151C3.21275 7.57577 3.21275 7.80966 3.06849 7.95391L2.37195 8.65045C2.22769 8.79471 1.9938 8.79471 1.84955 8.65045C1.70529 8.5062 1.70529 8.27231 1.84955 8.12805L2.54609 7.43151C2.69034 7.28725 2.92423 7.28725 3.06849 7.43151Z" fill="#5BDCB7"/>
<path d="M3.41676 9.69527C3.56102 9.55101 3.56102 9.31712 3.41676 9.17286C3.2725 9.0286 3.03861 9.0286 2.89436 9.17286L2.19782 9.8694C2.05356 10.0137 2.05356 10.2475 2.19782 10.3918C2.34207 10.5361 2.57596 10.5361 2.72022 10.3918L3.41676 9.69527Z" fill="#5BDCB7"/>
</svg>
