<svg width="16" height="16" viewBox="0 0 16 16" fill="none" xmlns="http://www.w3.org/2000/svg">
<rect width="16" height="16" rx="8" fill="#DC5B5B"/>
<path fill-rule="evenodd" clip-rule="evenodd" d="M11.3837 4.52273C11.6327 4.77178 11.6327 5.17557 11.3837 5.42462L8.8585 7.94978L11.3836 10.4749C11.6327 10.724 11.6327 11.1278 11.3836 11.3768C11.1346 11.6259 10.7308 11.6259 10.4818 11.3768L7.95661 8.85167L5.43147 11.3768C5.18242 11.6259 4.77862 11.6259 4.52957 11.3768C4.28052 11.1278 4.28052 10.724 4.52957 10.4749L7.05472 7.94978L4.52956 5.42462C4.28051 5.17557 4.28051 4.77178 4.52956 4.52273C4.77861 4.27368 5.1824 4.27368 5.43146 4.52273L7.95661 7.04788L10.4818 4.52273C10.7308 4.27367 11.1346 4.27367 11.3837 4.52273Z" fill="white"/>
</svg>
