<svg width="19" height="14" viewBox="0 0 19 14" fill="none" xmlns="http://www.w3.org/2000/svg">
<path fill-rule="evenodd" clip-rule="evenodd" d="M6.56538 0.944083C7.14855 1.53248 7.14431 2.48221 6.55592 3.06538L4.79295 4.81269C4.52932 5.07398 4.30157 5.30012 4.10408 5.5H17.5C18.3284 5.5 19 6.17157 19 7C19 7.82843 18.3284 8.5 17.5 8.5H4.10408C4.30157 8.69988 4.52932 8.92602 4.79295 9.18731L6.55592 10.9346C7.14431 11.5178 7.14855 12.4675 6.56538 13.0559C5.98221 13.6443 5.03248 13.6485 4.44408 13.0654L2.68111 11.3181C2.66234 11.2995 2.64362 11.2809 2.62496 11.2624C1.97009 10.6135 1.39119 10.0398 0.972288 9.51816C0.522443 8.95802 0.13538 8.31462 0.0319281 7.50299L0.0840666 7.49634L0.0319279 7.50299C-0.0106427 7.169 -0.0106427 6.831 0.0319283 6.49701C0.13538 5.68538 0.522444 5.04198 0.972288 4.48184C1.39119 3.96022 1.97008 3.38655 2.62496 2.73758C2.64362 2.71909 2.66233 2.70054 2.68111 2.68193L4.44408 0.934618C5.03248 0.351451 5.98222 0.355689 6.56538 0.944083Z" fill="#2E413C"/>
</svg>
