<svg width="6" height="10" viewBox="0 0 6 10" fill="none" xmlns="http://www.w3.org/2000/svg">
<path fill-rule="evenodd" clip-rule="evenodd" d="M0.547212 0.341602C0.995803 -0.111009 1.72637 -0.114268 2.17898 0.334322L3.53511 1.6784C3.54956 1.69272 3.56396 1.70699 3.57831 1.72121C4.08206 2.22042 4.52736 2.66171 4.84959 3.06295C5.19563 3.49383 5.49337 3.98875 5.57295 4.61308C5.60569 4.87 5.60569 5.13 5.57295 5.38691C5.49337 6.01125 5.19563 6.50617 4.84959 6.93705C4.52736 7.33829 4.08206 7.77957 3.57832 8.27877L2.17898 9.66568C1.72637 10.1143 0.995803 10.111 0.547212 9.6584C0.0986224 9.20579 0.101882 8.47522 0.554493 8.02663L1.91062 6.68255C2.47064 6.12751 2.82016 5.77863 3.0503 5.49205C3.26583 5.22369 3.28009 5.12403 3.28377 5.09514C3.29183 5.03196 3.29183 4.96804 3.28377 4.90487C3.28009 4.87597 3.26583 4.77631 3.0503 4.50794C2.82016 4.22137 2.47064 3.87249 1.91062 3.31745L0.554493 1.97337C0.101882 1.52478 0.0986224 0.794213 0.547212 0.341602Z" fill="#2E413C"/>
</svg>
