<svg width="7" height="10" viewBox="0 0 7 10" fill="none" xmlns="http://www.w3.org/2000/svg">
<path fill-rule="evenodd" clip-rule="evenodd" d="M1.1626 0.341602C1.61119 -0.111009 2.34176 -0.114268 2.79437 0.334322L4.1505 1.6784C4.16494 1.69272 4.17934 1.70699 4.19369 1.72121C4.69744 2.22042 5.14275 2.66171 5.46498 3.06295C5.81101 3.49383 6.10875 3.98875 6.18833 4.61308C6.22108 4.87 6.22108 5.13 6.18833 5.38691C6.10875 6.01125 5.81101 6.50617 5.46498 6.93705C5.14275 7.33829 4.69745 7.77957 4.19371 8.27877L2.79437 9.66568C2.34176 10.1143 1.61119 10.111 1.1626 9.6584C0.714009 9.20579 0.717269 8.47522 1.16988 8.02663L2.52601 6.68255C3.08603 6.12751 3.43555 5.77863 3.66569 5.49205C3.88122 5.22369 3.89548 5.12403 3.89916 5.09514C3.90721 5.03196 3.90721 4.96804 3.89916 4.90487C3.89548 4.87597 3.88122 4.77631 3.66569 4.50794C3.43555 4.22137 3.08603 3.87249 2.52601 3.31745L1.16988 1.97337C0.717269 1.52478 0.714009 0.794213 1.1626 0.341602Z" fill="#5BDCB7"/>
</svg>
