<svg width="12" height="14" viewBox="0 0 12 14" fill="none" xmlns="http://www.w3.org/2000/svg">
<path fill-rule="evenodd" clip-rule="evenodd" d="M3.96731 1.96498C4.52476 0.0116724 7.29299 0.0116724 7.85044 1.96498C8.02846 2.58877 8.66932 2.95877 9.29855 2.80105C11.2689 2.30716 12.653 4.70451 11.2401 6.16393C10.7889 6.63 10.7889 7.37 11.2401 7.83607C12.653 9.29549 11.2689 11.6928 9.29855 11.199C8.66932 11.0412 8.02846 11.4112 7.85044 12.035C7.29299 13.9883 4.52476 13.9883 3.96731 12.035C3.78929 11.4112 3.14843 11.0412 2.5192 11.199C0.548862 11.6928 -0.835251 9.29549 0.577641 7.83607C1.02885 7.37 1.02885 6.63 0.577642 6.16393C-0.83525 4.70451 0.548861 2.30716 2.5192 2.80105C3.14843 2.95877 3.78929 2.58877 3.96731 1.96498ZM8.4016 5.62739C8.54605 5.45406 8.52263 5.19645 8.34929 5.05201C8.17596 4.90756 7.91835 4.93098 7.77391 5.10432L5.88725 7.3683C5.68528 7.61068 5.56124 7.75798 5.45906 7.85025C5.41168 7.89304 5.38357 7.91009 5.37009 7.91661C5.36736 7.91794 5.36541 7.91873 5.36418 7.91919C5.36294 7.91873 5.36099 7.91794 5.35826 7.91661C5.34478 7.91009 5.31667 7.89304 5.26929 7.85025C5.16711 7.75798 5.04307 7.61067 4.8411 7.3683L4.04387 6.41164C3.89943 6.2383 3.64182 6.21488 3.46849 6.35933C3.29516 6.50377 3.27174 6.76138 3.41618 6.93471L4.2308 7.91226C4.40972 8.12701 4.57102 8.32061 4.72169 8.45667C4.88561 8.60469 5.0921 8.73653 5.36418 8.73653C5.63626 8.73653 5.84274 8.60469 6.00666 8.45667C6.15733 8.32061 6.31863 8.12702 6.49755 7.91227L8.4016 5.62739Z" fill="#2E413C"/>
</svg>
