<svg width="11" height="11" viewBox="0 0 11 11" fill="none" xmlns="http://www.w3.org/2000/svg">
<path d="M5.0971 0.5C2.96205 0.5 1.23125 2.2308 1.23125 4.36585C1.23125 4.55447 1.24478 4.74003 1.27094 4.92157C1.31887 5.04892 1.37298 5.17323 1.43289 5.29414C1.98788 6.41417 3.04112 7.243 4.30129 7.4916C4.55844 7.54233 4.8245 7.56898 5.09712 7.56898C5.33026 7.56898 5.55859 7.54949 5.78065 7.51212C7.06736 7.29559 8.15115 6.47687 8.7307 5.35471C8.8029 5.2149 8.86728 5.07038 8.92324 4.92171C8.94941 4.74013 8.96295 4.55453 8.96295 4.36585C8.96295 2.2308 7.23215 0.5 5.0971 0.5Z" fill="#5BDCB7"/>
<path d="M8.88845 6.34325C8.17314 7.28974 7.1113 7.96023 5.89062 8.16565C5.76252 8.18721 5.63273 8.20363 5.50147 8.2147C5.53856 8.28004 5.57943 8.35083 5.62389 8.42784L6.41444 9.79712C6.51401 9.96963 6.60607 10.1291 6.69386 10.2411C6.77984 10.3509 6.94129 10.5197 7.19342 10.4981C7.44874 10.4763 7.57719 10.2787 7.64092 10.1544C7.70544 10.0287 7.7646 9.85552 7.82814 9.66954L7.94337 9.33243C8.00726 9.14553 8.04572 9.03496 8.08329 8.95814C8.10045 8.92305 8.11248 8.90584 8.11912 8.89779C8.12217 8.89409 8.12438 8.89214 8.12438 8.89214L8.12494 8.89171L8.12555 8.89132L8.12685 8.89072C8.12685 8.89072 8.12964 8.88978 8.13437 8.88898C8.14467 8.88725 8.16559 8.88545 8.20455 8.88813C8.28987 8.894 8.40485 8.91598 8.59866 8.9541L8.94825 9.02287C9.14107 9.06082 9.32057 9.09616 9.46177 9.10318C9.60123 9.11011 9.83655 9.09765 9.98315 8.88746C10.1279 8.67991 10.0624 8.45567 10.0104 8.32635C9.95729 8.19434 9.86517 8.03484 9.76557 7.86238L8.95053 6.45066C8.92917 6.41363 8.90852 6.37783 8.88845 6.34325Z" fill="#5BDCB7"/>
<path d="M4.57616 8.20342C4.44002 8.18856 4.30556 8.16793 4.17302 8.14179C2.96806 7.90407 1.92757 7.21124 1.23727 6.25028C1.1981 6.31657 1.15684 6.38806 1.11241 6.46504L0.305676 7.86236C0.206061 8.03484 0.113952 8.19432 0.0608466 8.32635C0.00883067 8.45567 -0.0566779 8.67991 0.0880865 8.88746C0.234685 9.09765 0.470004 9.11011 0.609464 9.10318C0.750665 9.09616 0.930165 9.06082 1.12299 9.02287L1.47258 8.9541C1.66638 8.91598 1.78137 8.894 1.86668 8.88813C1.90565 8.88545 1.92657 8.88725 1.93686 8.88898C1.94159 8.88978 1.94438 8.89072 1.94438 8.89072L1.94568 8.89132L1.94685 8.89214C1.94685 8.89214 1.94906 8.89409 1.95211 8.89779C1.95876 8.90584 1.97078 8.92305 1.98794 8.95814C2.02552 9.03496 2.06397 9.14553 2.12786 9.33243L2.24309 9.66954C2.30664 9.85552 2.36579 10.0286 2.43031 10.1544C2.49404 10.2787 2.62249 10.4763 2.87782 10.4981C3.12995 10.5197 3.29139 10.3509 3.37738 10.2411C3.46516 10.1291 3.55723 9.96962 3.6568 9.79711L4.44732 8.42789C4.49437 8.34639 4.53739 8.27187 4.57616 8.20342Z" fill="#5BDCB7"/>
</svg>
