<svg width="9" height="11" viewBox="0 0 9 11" fill="none" xmlns="http://www.w3.org/2000/svg">
<path d="M4.27674 0C3.9204 0 3.6439 0.149124 3.39316 0.376888C3.16334 0.585654 2.92633 0.887916 2.64813 1.24273L2.62911 1.26698C2.05913 1.99382 1.40901 2.8928 0.899649 3.79332C0.398399 4.6795 0 5.62381 0 6.42575C0 8.92626 1.88991 11 4.27674 11C6.66357 11 8.55347 8.92626 8.55347 6.42575C8.55347 5.62381 8.15508 4.6795 7.65383 3.79332C7.14446 2.8928 6.49435 1.99382 5.92437 1.26698L5.90535 1.24273C5.62714 0.887917 5.39014 0.585655 5.16031 0.376888C4.90958 0.149124 4.63308 0 4.27674 0Z" fill="#5BDCB7"/>
</svg>
