<svg width="50" height="8" viewBox="0 0 50 8" fill="none" xmlns="http://www.w3.org/2000/svg">
<path d="M9.01408 2.11951e-06L8.41457 7.80326H5.96656L6.23777 4.34784H2.72635L2.45514 7.80326H0L0.606648 0H2.41945C2.61929 0 3.0261 0.0214196 3.01897 0.499752L2.84054 2.72721H6.35196L6.56607 0L9.01408 2.11951e-06Z" fill="#009999"/>
<path d="M40.1815 4.42635C41.2735 4.91896 42.3868 5.39016 42.2227 6.45391C42.0371 7.61762 40.3314 7.83894 38.9325 7.83894C38.8255 7.83894 38.7113 7.8318 38.5971 7.8318C36.6772 7.77469 35.7137 7.62476 35.7137 7.62476L35.7922 6.3611C35.7922 6.3611 37.1197 6.60384 38.3758 6.64668C39.0895 6.66809 39.6105 6.62526 39.6248 6.38252C39.6391 6.1612 39.2822 6.04697 38.5257 5.74712L37.862 5.48297C37.0626 5.14742 35.7565 4.66909 35.8208 3.57677C35.885 2.50588 37.1839 2.17033 37.9476 2.06324C38.3972 1.99899 38.8683 1.97757 39.5249 1.98471C40.9666 2.00613 42.1799 2.26314 42.1799 2.26314L42.0657 3.44113C42.0657 3.44113 40.781 3.16269 39.4892 3.16269C38.6684 3.16983 38.3901 3.26265 38.3473 3.39829C38.2688 3.64817 38.7255 3.82665 39.3251 4.06939L40.1815 4.42635Z" fill="#009999"/>
<path d="M12.0259 0C12.4113 0 12.5469 0.164205 12.5184 0.499752C12.5112 0.642538 12.447 1.49211 12.447 1.49211H10.0489L10.1631 0H12.0259ZM12.4042 2.12751L11.9617 7.80325H9.56363L9.99899 2.12751H12.4042Z" fill="#009999"/>
<path d="M32.7875 4.06943C32.8375 3.25555 32.2166 3.26269 32.0025 3.25555C31.3744 3.22699 30.575 3.34122 30.575 3.34122L30.3038 7.78901H28.0699L28.4197 2.30602C28.4197 2.30602 30.1896 2.09899 31.5814 2.04901C31.7455 2.04187 31.9097 2.04187 32.0595 2.04187C32.6448 2.04187 33.0659 2.07757 33.123 2.08471C33.9295 2.16324 35.1427 2.29175 35.0357 4.01232L34.793 7.79615H32.552C32.552 7.79615 32.7233 5.07607 32.7875 4.06943Z" fill="#009999"/>
<path d="M49.9378 5.42592C50.416 2.69157 47.9966 2.15612 47.4256 2.07045C47.2186 2.04189 46.9902 2.02048 46.7476 2.02048C44.1997 1.99906 42.9293 3.6054 42.8222 4.93331C42.7223 6.13985 43.1791 7.92468 46.9189 7.92468C48.2892 7.92468 49.1742 7.71764 49.5524 7.61055C49.5953 7.36067 49.6738 6.8395 49.738 6.4397C49.5524 6.4754 48.4319 6.71813 47.2115 6.71813H47.0973C45.3987 6.65388 45.0561 5.82572 45.0561 5.4402V5.41878L49.9378 5.42592ZM45.1489 4.34075C45.2559 3.74105 45.7198 3.13421 46.6976 3.12706C48.125 3.14134 48.0322 4.34075 48.0322 4.34075H45.1489Z" fill="#009999"/>
<path d="M27.342 5.42592C27.8273 2.69157 25.4007 2.15612 24.8297 2.07045C24.6228 2.04189 24.3944 2.02048 24.1517 2.02048C21.6038 1.99906 20.3263 3.6054 20.2192 4.93331C20.1193 6.13985 20.5761 7.92468 24.3159 7.92468C25.6933 7.92468 26.5712 7.71764 26.9494 7.61055C26.9923 7.36067 27.0708 6.8395 27.135 6.4397C26.9494 6.4754 25.8289 6.71813 24.6085 6.71813H24.4943C22.7957 6.65388 22.4531 5.82572 22.4531 5.4402V5.41878L27.342 5.42592ZM22.5459 4.34075C22.6529 3.74105 23.1169 3.13421 24.0946 3.12706C25.522 3.14134 25.4293 4.34075 25.4293 4.34075H22.5459Z" fill="#009999"/>
<path d="M17.55 4.42636L16.7007 4.07653C16.1012 3.84094 15.6444 3.66245 15.7229 3.41258C15.7657 3.26979 16.0441 3.17698 16.8648 3.17698C18.1566 3.17698 19.4413 3.45541 19.4413 3.45541L19.5555 2.27743C19.5555 2.27743 18.3422 2.01327 16.9005 1.99899C16.2439 1.99185 15.7729 2.01327 15.3232 2.07752C14.5524 2.18462 13.2606 2.52016 13.1964 3.59106C13.1321 4.69051 14.4382 5.16884 15.2376 5.49725L15.9013 5.7614C16.6578 6.06125 17.0147 6.17548 17.0004 6.3968C16.9861 6.64668 16.4651 6.68237 15.7514 6.66096C14.4953 6.61812 13.1678 6.37538 13.1678 6.37538L13.0893 7.63904C13.0893 7.63904 14.0528 7.7961 15.9727 7.84608H16.3081C17.707 7.84608 19.4127 7.62476 19.5983 6.46105C19.7696 5.39016 18.6419 4.91897 17.55 4.42636Z" fill="#009999"/>
</svg>
