<svg width="40" height="14" viewBox="0 0 40 14" fill="none" xmlns="http://www.w3.org/2000/svg">
<path d="M36.6736 11.2239C34.5572 11.2377 32.5527 11.2546 31.9937 11.2049C30.8631 11.1066 30.1075 10.367 30.0198 9.27861C29.9607 8.5643 29.9607 7.97257 30.0167 7.40937C30.1192 6.34953 31.0057 5.34042 31.9937 5.29181C32.3477 5.27279 33.2944 5.27491 35.0094 5.28231L40 5.29181V3.22181C40 3.22181 36.0249 3.21758 34.8298 3.2123C33.2258 3.20491 32.4185 3.20385 31.907 3.22181C30.7817 3.26513 29.8392 3.66561 29.1069 4.4095C28.4127 5.11218 27.9984 6.23013 27.9372 7.36182C27.9023 7.97257 27.8907 8.77035 27.9372 9.24479C28.0523 10.4621 28.4465 11.4173 29.1069 12.0862C29.8127 12.8047 30.8874 13.2601 31.9081 13.2738C32.746 13.2844 40 13.2738 40 13.2738V11.2049C40 11.2049 37.7969 11.2134 36.6736 11.2239Z" fill="#8CC751"/>
<path d="M14.1445 3.33264V5.40053H19.0686V13.2378H21.147V5.40053H26.0711V3.33264H14.1445Z" fill="#8CC751"/>
<path d="M11.9857 7.24343C11.9709 6.1297 11.5779 5.17448 10.816 4.40206C10.0214 3.59371 8.80941 3.25769 8.01586 3.21543C7.32586 3.17633 4.60706 3.18901 3.96884 3.21543C3.06962 3.25347 2.41449 3.52186 2.08586 3.767C2.0827 3.76913 2.07951 3.76806 2.07951 3.76278V0H0V13.2738H2.07634C2.07634 13.2738 2.03513 7.84044 2.08163 7.24871C2.16405 6.19733 2.96183 5.37102 3.9794 5.28226C4.79514 5.21252 7.24343 5.23154 8.01162 5.28332C9.06617 5.35623 9.84494 6.18042 9.90622 7.29098C9.92631 7.69991 9.90528 13.2738 9.90528 13.2738H11.9858C11.9858 13.2738 11.991 7.72104 11.9857 7.24343Z" fill="#8CC751"/>
</svg>
