<svg width="20" height="16" viewBox="0 0 20 16" fill="none" xmlns="http://www.w3.org/2000/svg">
<path d="M8.53976 4.28322e-05C8.27255 0.0236782 7.55046 0.188038 7.55046 0.188038C5.92289 0.60872 5.53791 2.0857 5.53791 2.0857C5.45843 2.33406 5.42233 2.58859 5.41171 2.82839V3.15477C5.43331 3.65904 5.54545 4.03557 5.54545 4.03557C6.08912 6.44626 8.76221 10.4074 9.3367 11.2395C9.37746 11.2799 9.4101 11.2653 9.4101 11.2653C9.47211 11.2482 9.46725 11.1887 9.46725 11.1887L9.46843 11.189C10.3533 2.34444 8.53976 4.28322e-05 8.53976 4.28322e-05ZM11.4636 4.28322e-05C11.4636 4.28322e-05 9.64209 2.34568 10.5276 11.1954H10.5288C10.5357 11.2516 10.5755 11.2633 10.5755 11.2633C10.6348 11.2862 10.6652 11.2293 10.6652 11.2293L10.6655 11.2299C11.2547 10.3765 13.9126 6.43696 14.4538 4.03553C14.4538 4.03553 14.7473 2.87323 14.464 2.08565C14.464 2.08565 14.0616 0.585803 12.432 0.189447C12.432 0.189447 11.9623 0.0702697 11.4636 4.28322e-05ZM3.06206 2.65519C3.06206 2.65519 1.51129 4.12708 1.43421 5.6875H1.43483V5.92394C1.43601 5.94174 1.43691 5.95976 1.43803 5.97789C1.50483 7.23617 2.45141 7.98087 2.45141 7.98087C3.97655 9.46729 7.66948 11.344 8.52762 11.7698C8.53964 11.7743 8.58398 11.7888 8.61001 11.7559C8.61001 11.7559 8.62356 11.7456 8.62974 11.7271V11.6879C8.62912 11.6857 8.62794 11.6834 8.62682 11.681C6.27677 6.54716 3.06206 2.65519 3.06206 2.65519ZM16.9375 2.65519C16.9375 2.65519 13.7322 6.53499 11.3832 11.6584L11.3841 11.6581C11.3841 11.6581 11.3564 11.7175 11.4012 11.7559C11.4012 11.7559 11.4146 11.766 11.4331 11.7701H11.4656C11.4715 11.7684 11.4777 11.7661 11.4839 11.7619C12.3653 11.3245 16.0297 9.46068 17.5476 7.98111C17.5476 7.98111 18.5089 7.20916 18.5593 5.96973C18.6703 4.24829 16.9375 2.65519 16.9375 2.65519ZM19.8224 7.75197C19.8224 7.75197 14.5968 10.5563 11.895 12.3788L11.8959 12.3796C11.8959 12.3796 11.8468 12.4117 11.864 12.4693C11.864 12.4693 11.8896 12.5157 11.9269 12.5157C12.8947 12.5174 16.5568 12.5218 16.6486 12.5047C16.6486 12.5047 17.1221 12.4857 17.7072 12.261C17.7072 12.261 19.0098 11.8468 19.6864 10.3679C19.6864 10.3679 19.9955 9.74956 20 8.8808V8.84397C19.9978 8.50894 19.9505 8.13805 19.8224 7.75197ZM0.175685 7.76505C-0.299764 9.23692 0.34031 10.4229 0.341343 10.4248C1.00838 11.8342 2.28165 12.2613 2.28165 12.2613C2.8695 12.5028 3.45749 12.5195 3.45749 12.5195C3.5493 12.5363 7.11381 12.5212 8.0689 12.5167C8.10932 12.5164 8.13156 12.4757 8.13156 12.4757C8.13437 12.4713 8.13684 12.4668 8.13795 12.4627V12.4258C8.13004 12.4012 8.10894 12.3838 8.10894 12.3838L8.10956 12.3835C5.40904 10.5616 0.175685 7.76505 0.175685 7.76505ZM7.95981 12.9692L1.81253 13.1847C2.47917 14.3731 3.60189 15.2967 4.77143 15.013C5.57853 14.8113 7.40697 13.5359 8.01058 13.1049L8.00856 13.1033C8.0555 13.0611 8.03873 13.0272 8.03873 13.0272C8.02329 12.9721 7.95982 12.9721 7.95982 12.9721L7.95981 12.9692ZM12.0313 12.9737L12.0307 12.9759C12.0307 12.9759 11.9767 12.9827 11.9616 13.0232C11.9616 13.0232 11.9485 13.0784 11.9849 13.1059L11.9842 13.1064C12.5728 13.5285 14.3569 14.7758 15.2164 15.018C15.2164 15.018 15.3466 15.0623 15.5649 15.0702H15.696C16.2719 15.05 17.2751 14.7542 18.1867 13.1879L12.0313 12.9737Z" fill="#CF0A2C"/>
</svg>
