<svg width="50" height="15" viewBox="0 0 50 15" fill="none" xmlns="http://www.w3.org/2000/svg">
<path d="M1.10619 0C0.496907 0 0 0.494845 0 1.10412V14.3402H5.45361L7.14845 12.1041L8.84639 14.3402H13.1928C13.8021 14.3402 14.2979 13.8443 14.2979 13.2351V0H1.10619ZM13.5835 13.2351C13.5835 13.4505 13.4072 13.6268 13.1918 13.6268H9.21753L7.14845 10.9856L5.08041 13.6268H0.713402V1.10412C0.713402 0.88866 0.88866 0.713402 1.10515 0.713402H13.5825V13.2351H13.5835Z" fill="#F2A10C"/>
<path d="M8.17113 7.16907L7.14948 8.47113L9.93195 12.0155H11.9752L8.17113 7.16907Z" fill="#777777"/>
<path d="M7.1495 5.86799L4.36599 2.32263H2.32269L6.12785 7.16902L7.1495 5.86799Z" fill="#777777"/>
<path d="M6.12785 7.16907L2.32269 12.0155H4.36599L6.13094 9.76701L6.12785 7.16907Z" fill="#94908E"/>
<path d="M8.17114 7.16902L11.9753 2.32263H9.93197L8.17527 4.55665L8.17114 7.16902Z" fill="#94908E"/>
<path d="M8.17111 7.16907L7.14946 5.86804L6.12781 7.16907L7.14946 8.47114L8.17111 7.16907Z" fill="#94908E"/>
<path d="M47.3618 7.18459L50 4.0083H49.1453L47.3618 6.15675V7.18459Z" fill="#F6B74C"/>
<path d="M46.5072 7.18457L43.869 10.3619H44.7226L46.5072 8.21344V7.18457Z" fill="#F6B74C"/>
<path d="M49.1453 10.3619H49.9999L47.3618 7.18457L46.934 7.699L49.1453 10.3619Z" fill="#F4A807"/>
<path d="M46.934 6.67016L44.7237 4.0083H43.869L46.5072 7.18459L46.934 6.67016Z" fill="#F4A807"/>
<path d="M47.3618 7.18454L46.934 6.67114L46.5072 7.18454L46.934 7.69898L47.3618 7.18454Z" fill="#F6B74C"/>
<path d="M19.9237 9.60304V3.9917H19.1752V9.90201C19.1804 10.1494 19.3804 10.3484 19.6288 10.3515H23.2247V9.60304H19.9237Z" fill="#777777"/>
<path d="M30.4391 10.3566L28.0608 4.41438C28.0072 4.26386 27.9 4.14015 27.7608 4.06593V4.0649L27.7598 4.06593C27.6721 4.0185 27.5701 3.9917 27.4629 3.9917C27.3587 3.9917 27.2608 4.01644 27.1742 4.0618L27.1711 4.06077L27.1721 4.06283C27.034 4.135 26.9257 4.25562 26.8701 4.40201L24.4855 10.3515H25.2453L27.467 4.80098L29.6804 10.3566H30.4391Z" fill="#777777"/>
<path d="M38.0556 4.00624L37.2897 4.00315L37.2938 9.34336L31.936 3.9949L31.9278 3.98047L31.9185 10.3485H32.6783L32.6773 5.88975L36.9443 10.133L36.9505 10.1361C37.1061 10.266 37.2051 10.3392 37.3752 10.3526L37.3845 10.3578V10.3537C37.3969 10.3547 37.4103 10.3578 37.4237 10.3578C37.7639 10.3578 38.0391 10.0867 38.0484 9.74851H38.0494V9.74336C38.0494 9.73923 38.0505 9.73511 38.0505 9.73098C38.0505 9.72686 38.0494 9.72377 38.0494 9.71964L38.0556 4.00624Z" fill="#777777"/>
<path d="M41.7175 4.0144H40.9587V10.3536H41.7175V4.0144Z" fill="#777777"/>
</svg>
