<svg width="50" height="11" viewBox="0 0 50 11" fill="none" xmlns="http://www.w3.org/2000/svg">
<path d="M20.9563 2.21362C20.0534 2.21362 19.0266 2.63215 18.3993 3.47006L18.3997 3.46837L18.3993 3.46879L18.3997 2.34521H16.2463V10.1869H18.3993V5.72487C18.3993 4.92176 19.022 4.06815 20.1748 4.06815C21.0658 4.06815 21.9878 4.68788 21.9878 5.72487V10.1869H24.1411V5.32586C24.1411 3.52227 22.8507 2.21362 20.9563 2.21362Z" fill="#E60012"/>
<path d="M39.4454 2.34552L37.4988 7.68709L35.5522 2.34552H33.0923L36.3188 10.1847H38.6784L41.9048 2.34552H39.4454Z" fill="#E60012"/>
<path d="M9.81785 4.70783C10.1846 4.21544 10.7687 3.92637 11.4741 3.92637C12.2501 3.92637 12.8388 4.36952 13.1432 5.02363L9.38106 6.58442C9.27834 5.78344 9.48336 5.15692 9.81785 4.70783ZM13.9548 7.77592C13.0485 8.44659 12.5307 8.60661 11.7042 8.60661C10.9605 8.60661 10.3782 8.3757 9.96769 7.97075L15.4727 5.68709C15.3526 4.83602 15.0295 4.07579 14.5325 3.49765C13.8092 2.65762 12.7386 2.2132 11.4351 2.2132C9.06738 2.2132 7.28204 3.9599 7.28204 6.26692C7.28204 8.63378 9.07162 10.3202 11.6724 10.3202C13.1296 10.3202 14.6195 9.6296 15.3165 8.82267L13.9548 7.77592Z" fill="#E60012"/>
<path d="M7.07682 8.20974H2.18264V0H0V10.1869H7.07682V8.20974Z" fill="#E60012"/>
<path d="M45.7714 4.05844C44.5689 4.05844 43.6957 4.96979 43.6957 6.26613C43.6957 7.50389 44.6206 8.47382 45.8003 8.47382C47.0032 8.47382 47.8759 7.53743 47.8759 6.26613C47.8759 5.02837 46.9514 4.05844 45.7714 4.05844ZM45.7714 10.319C43.4164 10.319 41.5712 8.56465 41.5712 6.26613C41.5712 3.9935 43.4291 2.21326 45.8003 2.21326C48.1552 2.21326 50 3.96761 50 6.26613C50 8.53834 48.1425 10.319 45.7714 10.319Z" fill="#E60012"/>
<path d="M29.1927 4.05844C27.9902 4.05844 27.1175 4.96979 27.1175 6.26613C27.1175 7.50389 28.042 8.47382 29.222 8.47382C30.4245 8.47382 31.2973 7.53743 31.2973 6.26613C31.2973 5.02837 30.3728 4.05844 29.1927 4.05844ZM29.1927 10.319C26.8377 10.319 24.993 8.56465 24.993 6.26613C24.993 3.9935 26.8505 2.21326 29.222 2.21326C31.5766 2.21326 33.4218 3.96761 33.4218 6.26613C33.4218 8.53834 31.5638 10.319 29.1927 10.319Z" fill="#E60012"/>
</svg>
