<svg width="20" height="21" viewBox="0 0 20 21" fill="none" xmlns="http://www.w3.org/2000/svg">
<path d="M9.9988 20.0024C15.5224 20.0024 20 15.5176 20 10.0024C20 4.47709 15.5224 4.98841e-05 9.9988 4.98841e-05C4.47584 4.98841e-05 0 4.47709 0 10.0024C0 15.5176 4.47584 20.0024 9.9988 20.0024Z" fill="#C4084F"/>
<path d="M9.59589 5.60742V14.3849H12.381V13.5964H10.4011V5.60742H9.59589Z" fill="white"/>
<path d="M6.80359 8.00702C7.46395 8.00702 8.00756 7.47058 8.00756 6.80842C8.00756 6.14268 7.46395 5.60504 6.80359 5.60504C6.14323 5.60504 5.60321 6.14268 5.60321 6.80842C5.60321 7.47058 6.14323 8.00702 6.80359 8.00702Z" fill="white"/>
<path d="M10.4011 1.6369C10.2916 1.6339 10.1018 1.6339 9.99879 1.6339C5.38226 1.6339 1.62665 5.38173 1.62665 10.0007C1.62665 12.2344 2.49954 14.3388 4.0759 15.9176C5.66005 17.4999 7.75728 18.3794 9.99879 18.3794C12.2355 18.3794 14.3357 17.4999 15.9187 15.9176C17.495 14.3388 18.3632 12.2344 18.3632 10.0007V9.61809H12.3888V10.3952H17.5705C17.5705 10.4108 17.5669 10.4964 17.5669 10.5137C17.3119 14.4657 14.0059 17.5849 9.99879 17.5849C7.9752 17.5849 6.06178 16.7994 4.6315 15.3704C3.19942 13.9383 2.40614 12.0278 2.40614 10.0001C2.40614 7.97408 3.19942 6.06724 4.6315 4.63576C6.06178 3.20069 7.9752 2.41041 9.99879 2.41041C10.0886 2.41041 10.3017 2.41521 10.4011 2.417V1.6369Z" fill="white"/>
</svg>
