<svg width="60" height="22" viewBox="0 0 60 22" fill="none" xmlns="http://www.w3.org/2000/svg">
<path d="M6.48677 17.0389C5.37122 17.0595 4.26873 16.7963 3.2828 16.274C2.36005 15.7873 1.59056 15.0539 1.06005 14.1556C0.648185 13.4778 0.379049 12.7231 0.269123 11.9377C0.159196 11.1522 0.210798 10.3526 0.420769 9.58782C0.63074 8.82302 0.994658 8.10912 1.49023 7.48987C1.9858 6.87063 2.60259 6.35908 3.30282 5.98654C4.28863 5.46354 5.39097 5.19899 6.50679 5.21766C7.34681 5.20704 8.1808 5.36076 8.96182 5.67017C9.5011 5.89355 10.0034 6.19733 10.4517 6.57117C10.5152 6.62453 10.5669 6.69056 10.6035 6.76504C10.6401 6.83952 10.6608 6.9208 10.6642 7.00371C10.6676 7.08662 10.6536 7.16932 10.6232 7.24653C10.5928 7.32375 10.5467 7.39379 10.4877 7.45216L9.0259 8.92981C8.92677 9.03217 8.79407 9.09539 8.65211 9.10789C8.51016 9.12039 8.36846 9.08133 8.25295 8.99788C8.08459 8.87009 7.90011 8.76508 7.70428 8.68554C7.3208 8.53987 6.91292 8.46917 6.50279 8.4773C6.03506 8.46965 5.5736 8.5857 5.16514 8.81369C4.77399 9.03272 4.45103 9.35562 4.23198 9.74671C4.00199 10.1631 3.88595 10.6327 3.89556 11.1082C3.885 11.5941 4.00093 12.0743 4.23198 12.5018C4.45127 12.8985 4.7773 13.2259 5.17314 13.4469C5.58 13.6716 6.038 13.7874 6.50279 13.7832C6.92941 13.7909 7.35315 13.7119 7.74832 13.551C7.95303 13.4642 8.14555 13.3511 8.32103 13.2146C8.43591 13.1309 8.5769 13.091 8.7186 13.102C8.8603 13.113 8.99342 13.1742 9.09399 13.2746L10.5478 14.7163C10.6071 14.7747 10.6536 14.8449 10.6844 14.9223C10.7151 14.9997 10.7295 15.0826 10.7264 15.1658C10.7234 15.249 10.7031 15.3307 10.6669 15.4057C10.6306 15.4807 10.5791 15.5473 10.5157 15.6013C10.0553 15.9964 9.53828 16.3204 8.98186 16.5623C8.19174 16.8909 7.34237 17.0531 6.48677 17.0389V17.0389Z" fill="#2E413C"/>
<path d="M11.6256 16.1858V0.872765C11.6256 0.713457 11.6889 0.560671 11.8015 0.448023C11.9142 0.335376 12.067 0.272095 12.2263 0.272095H14.6293C14.7886 0.272095 14.9414 0.335376 15.0541 0.448023C15.1667 0.560671 15.23 0.713457 15.23 0.872765V16.1899C15.23 16.3492 15.1667 16.5019 15.0541 16.6146C14.9414 16.7272 14.7886 16.7905 14.6293 16.7905H12.2263C12.1471 16.7905 12.0686 16.7749 11.9955 16.7444C11.9223 16.714 11.8559 16.6694 11.8001 16.6132C11.7443 16.557 11.7001 16.4903 11.6701 16.4169C11.6402 16.3436 11.625 16.2651 11.6256 16.1858ZM19.5433 16.7865C19.384 16.7865 19.2312 16.7232 19.1186 16.6106C19.0059 16.4979 18.9426 16.3452 18.9426 16.1858V10.3393C18.9526 10.0786 18.9083 9.81869 18.8124 9.57603C18.7166 9.33337 18.5714 9.1133 18.3859 8.92975C18.2016 8.74956 17.9828 8.60844 17.7426 8.51486C17.5025 8.42128 17.2458 8.37716 16.9882 8.38515C16.639 8.37894 16.2941 8.46308 15.987 8.62942C15.6957 8.78865 15.4544 9.02574 15.2901 9.31419C15.2296 9.42166 15.1787 9.5342 15.1379 9.65055C15.1105 9.73029 15.0662 9.80322 15.0081 9.86436C14.95 9.92551 14.8795 9.97346 14.8013 10.005C14.723 10.0365 14.6389 10.0508 14.5547 10.047C14.4704 10.0432 14.388 10.0214 14.3129 9.98293L14.0125 9.83477C13.9023 9.78144 13.811 9.69572 13.7509 9.58908C13.6908 9.48245 13.6647 9.35999 13.6761 9.2381C13.7147 8.57001 13.9051 7.91951 14.2328 7.33598C14.5972 6.68102 15.1421 6.14451 15.8027 5.79026C16.5033 5.41649 17.2876 5.22763 18.0815 5.24163C18.8912 5.22403 19.6919 5.41286 20.4084 5.79026C21.0614 6.13744 21.6029 6.66218 21.9704 7.30394C22.3522 7.9886 22.5443 8.76272 22.527 9.54643V16.1858C22.527 16.3452 22.4638 16.4979 22.3511 16.6106C22.2384 16.7232 22.0856 16.7865 21.9263 16.7865H19.5433Z" fill="#2E413C"/>
<path d="M23.6156 16.1865V6.07925C23.6156 5.91994 23.6788 5.76715 23.7915 5.65451C23.9042 5.54186 24.057 5.47858 24.2163 5.47858H26.5992C26.7586 5.47858 26.9114 5.54186 27.024 5.65451C27.1367 5.76715 27.2 5.91994 27.2 6.07925V16.1905C27.2 16.3498 27.1367 16.5026 27.024 16.6153C26.9114 16.7279 26.7586 16.7912 26.5992 16.7912H24.2163C24.1371 16.7912 24.0586 16.7755 23.9855 16.7451C23.9123 16.7147 23.8459 16.6701 23.7901 16.6139C23.7342 16.5576 23.6901 16.491 23.6601 16.4176C23.6302 16.3443 23.615 16.2657 23.6156 16.1865Z" fill="#2E413C"/>
<path d="M28.2607 20.9551V6.07845C28.2607 5.91915 28.324 5.76636 28.4366 5.65371C28.5493 5.54106 28.7021 5.47778 28.8614 5.47778H31.2444C31.4037 5.47778 31.5565 5.54106 31.6692 5.65371C31.7818 5.76636 31.8451 5.91915 31.8451 6.07845V8.30093C31.8493 8.3422 31.8493 8.38379 31.8451 8.42507L31.2964 11.016C31.2805 11.0939 31.2805 11.1743 31.2964 11.2522L31.7971 13.8231C31.8012 13.8617 31.8012 13.9006 31.7971 13.9392V20.959C31.7971 21.1184 31.7338 21.2711 31.6211 21.3838C31.5085 21.4964 31.3556 21.5597 31.1963 21.5597H28.8614C28.7822 21.5597 28.7038 21.5441 28.6306 21.5136C28.5575 21.4832 28.4911 21.4386 28.4352 21.3824C28.3794 21.3262 28.3352 21.2595 28.3053 21.1862C28.2753 21.1128 28.2602 21.0343 28.2607 20.9551V20.9551ZM34.8208 17.0187C34.0918 17.028 33.3697 16.8762 32.7062 16.5742C32.0958 16.3027 31.5629 15.8828 31.1563 15.3528C30.7613 14.837 30.5235 14.2183 30.4714 13.5708V8.80149C30.5247 8.13879 30.7665 7.50518 31.1683 6.97545C31.5804 6.434 32.1159 5.99879 32.7302 5.70604C33.3823 5.39315 34.0976 5.23421 34.8208 5.24151C35.8171 5.22497 36.7976 5.49161 37.6483 6.01038C38.4799 6.52061 39.1601 7.24362 39.6187 8.10471C40.0887 9.04184 40.3335 10.0757 40.3335 11.1241C40.3335 12.1724 40.0887 13.2063 39.6187 14.1435C39.1595 15.0028 38.4811 15.7254 37.6523 16.2378C36.8012 16.7603 35.8195 17.031 34.8208 17.0187V17.0187ZM34.168 13.783C34.6284 13.7929 35.0826 13.6766 35.4816 13.4467C35.8585 13.2115 36.1655 12.8796 36.3707 12.4856C36.5918 12.0615 36.7073 11.5903 36.7073 11.1121C36.7073 10.6338 36.5918 10.1626 36.3707 9.73854C36.16 9.35249 35.8521 9.0281 35.4776 8.79748C35.0783 8.57394 34.6253 8.46451 34.168 8.48113C33.7064 8.47199 33.251 8.58826 32.8504 8.81752C32.4712 9.0424 32.162 9.36819 31.9573 9.75856C31.7413 10.1842 31.6287 10.6548 31.6287 11.1321C31.6287 11.6094 31.7413 12.08 31.9573 12.5056C32.1624 12.8967 32.4715 13.2237 32.8504 13.4507C33.2505 13.6808 33.7065 13.7959 34.168 13.783Z" fill="#2E413C"/>
<path d="M45.2434 17.0871C44.5748 17.0876 43.9093 16.9974 43.265 16.8188C42.6371 16.653 42.0349 16.4025 41.4747 16.074C41.1384 15.8804 40.8195 15.658 40.5216 15.4092C40.4596 15.3546 40.4095 15.2879 40.3743 15.2132C40.3391 15.1385 40.3196 15.0574 40.317 14.9748C40.3143 14.8923 40.3286 14.8101 40.359 14.7333C40.3894 14.6565 40.4352 14.5867 40.4935 14.5283L41.695 13.3269C41.8002 13.2225 41.9405 13.161 42.0886 13.1544C42.2366 13.1477 42.3819 13.1964 42.496 13.2909C43.2351 13.8951 44.1647 14.2172 45.1193 14.1999C45.4356 14.2163 45.7509 14.153 46.0364 14.0157C46.1388 13.9686 46.2255 13.8929 46.2859 13.7977C46.3463 13.7025 46.3778 13.5918 46.3768 13.4791C46.3797 13.348 46.3431 13.219 46.2717 13.109C46.2002 12.999 46.0973 12.9131 45.9763 12.8624C45.6434 12.705 45.296 12.5803 44.939 12.49C44.5145 12.3739 44.0659 12.2417 43.6014 12.0895C43.1392 11.9408 42.6947 11.7421 42.2757 11.4969C41.8551 11.2444 41.503 10.8923 41.2505 10.4717C40.9626 9.90841 40.8264 9.2799 40.8552 8.64799C40.884 8.01607 41.0768 7.40252 41.4147 6.8677C41.817 6.30881 42.3638 5.86998 42.9966 5.5983C43.7688 5.27188 44.6016 5.11355 45.4396 5.13379C46.349 5.12489 47.2512 5.29497 48.0949 5.63435C48.6938 5.86595 49.2389 6.21751 49.6969 6.66748C49.8079 6.77926 49.8703 6.93043 49.8703 7.08797C49.8703 7.24551 49.8079 7.39666 49.6969 7.50843L48.4954 8.7458C48.3861 8.85586 48.2387 8.91973 48.0837 8.9242C47.9287 8.92867 47.7778 8.8734 47.6624 8.76983C47.4239 8.56535 47.1532 8.40166 46.8614 8.2853C46.4524 8.11569 46.0146 8.02597 45.5718 8.02099C45.2577 7.99972 44.9437 8.06335 44.6627 8.20521C44.5728 8.25187 44.4971 8.32182 44.4436 8.40778C44.39 8.49373 44.3606 8.59252 44.3583 8.69376C44.364 8.81535 44.4049 8.93266 44.476 9.03147C44.5471 9.13028 44.6453 9.20631 44.7588 9.25037C45.0867 9.41077 45.4303 9.53691 45.7841 9.62679C46.1846 9.73491 46.6331 9.86305 47.0977 10.0272C47.5653 10.1775 48.0111 10.3889 48.4233 10.6559C48.8432 10.9283 49.1941 11.2943 49.4486 11.7251C49.7361 12.2579 49.8744 12.8583 49.8491 13.4631C49.8638 13.9678 49.7591 14.4689 49.5433 14.9254C49.3275 15.3819 49.0069 15.781 48.6076 16.09C47.7772 16.7547 46.6558 17.0871 45.2434 17.0871Z" fill="#2E413C"/>
<path d="M50.6351 16.1865V6.07925C50.6351 5.91994 50.6983 5.76715 50.811 5.65451C50.9237 5.54186 51.0765 5.47858 51.2358 5.47858H53.6187C53.7781 5.47858 53.9309 5.54186 54.0435 5.65451C54.1562 5.76715 54.2195 5.91994 54.2195 6.07925V16.1905C54.2184 16.3495 54.1548 16.5017 54.0424 16.6141C53.9299 16.7265 53.7777 16.7901 53.6187 16.7912H51.2358C51.1566 16.7912 51.0781 16.7755 51.005 16.7451C50.9318 16.7147 50.8654 16.6701 50.8096 16.6139C50.7537 16.5576 50.7096 16.4909 50.6796 16.4176C50.6497 16.3443 50.6345 16.2657 50.6351 16.1865Z" fill="#2E413C"/>
<path d="M25.4402 3.93239C26.5262 3.93239 27.4066 3.05209 27.4066 1.96619C27.4066 0.880295 26.5262 0 25.4402 0C24.3542 0 23.4738 0.880295 23.4738 1.96619C23.4738 3.05209 24.3542 3.93239 25.4402 3.93239Z" fill="#5BDCB7"/>
<path d="M57.2465 16.9028C58.3325 16.9028 59.2129 16.0225 59.2129 14.9366C59.2129 13.8507 58.3325 12.9704 57.2465 12.9704C56.1604 12.9704 55.28 13.8507 55.28 14.9366C55.28 16.0225 56.1604 16.9028 57.2465 16.9028Z" fill="#5BDCB7"/>
<path d="M52.4597 3.93239C53.5458 3.93239 54.4262 3.05209 54.4262 1.96619C54.4262 0.880295 53.5458 0 52.4597 0C51.3737 0 50.4933 0.880295 50.4933 1.96619C50.4933 3.05209 51.3737 3.93239 52.4597 3.93239Z" fill="#5BDCB7"/>
</svg>
