<svg width="31" height="27" viewBox="0 0 31 27" fill="none" xmlns="http://www.w3.org/2000/svg">
<path d="M24.2296 18.2862C19.7162 19.1529 22.8409 25.0462 16.0708 26.2595C13.6405 26.695 9.0924 25.0115 4.09295 22.0995C-2.15637 18.4596 0.11909 10.0394 4.09294 10.8329C8.43276 11.6996 11.9046 9.96628 13.1197 4.41966C14.3349 -1.12697 27.1807 2.68634 29.4374 8.05963C31.6941 13.4329 28.743 17.4196 24.2296 18.2862Z" fill="#8CE6CD" fill-opacity="0.3"/>
<path d="M13.5211 14.2736V17.0186H9.1291C8.40109 17.0186 7.7029 17.3078 7.18812 17.8226C6.67333 18.3374 6.38413 19.0355 6.38413 19.7636V21.9595H2.54117V19.7636C2.54117 18.0163 3.23525 16.3407 4.47073 15.1052C5.70621 13.8697 7.38188 13.1756 9.1291 13.1756H12.4231C12.7143 13.1756 12.9936 13.2913 13.1995 13.4972C13.4054 13.7031 13.5211 13.9824 13.5211 14.2736Z" fill="#14CC98"/>
<path d="M12.423 13.1756H9.12901C7.87541 13.1763 6.64802 13.5346 5.59097 14.2085C4.53392 14.8824 3.69108 15.8439 3.16144 16.9802C5.4782 14.4383 7.99808 14.8226 11.325 14.8226C11.6162 14.8226 11.8955 14.9383 12.1014 15.1442C12.3073 15.3501 12.423 15.6294 12.423 15.9206V17.0186H13.521V14.2736C13.521 13.9824 13.4053 13.7031 13.1994 13.4972C12.9935 13.2913 12.7142 13.1756 12.423 13.1756Z" fill="#8CE6CD"/>
<path d="M22.305 16.4702L20.109 21.9601H13.5211V19.7641H17.084C17.3598 19.7651 17.6258 19.6623 17.8292 19.4762C18.0326 19.2901 18.1586 19.0342 18.182 18.7595C19.0879 7.25803 19.011 8.38347 19.011 8.23524L21.207 8.78424C21.3168 9.56381 21.1356 8.31759 22.305 16.4702Z" fill="#5BDCB7"/>
<path d="M22.305 16.4702C20.4988 20.9884 20.4933 20.8621 20.5482 20.8621C20.4267 20.8617 20.3071 20.8316 20.1998 20.7745C20.0925 20.7173 20.0008 20.6349 19.9326 20.5342C19.8645 20.4336 19.8219 20.3179 19.8086 20.1971C19.7954 20.0762 19.8118 19.954 19.8565 19.841L21.207 16.4702C20.0376 8.31759 20.2188 9.55283 20.109 8.78424C18.7914 8.45484 18.9836 8.60856 19.011 8.23524L21.207 8.78424C21.3168 9.56381 21.1356 8.31759 22.305 16.4702Z" fill="#8CE6CD"/>
<path d="M23.4031 4.94109V8.23506C23.4031 8.38066 23.3453 8.5203 23.2423 8.62325C23.1393 8.72621 22.9997 8.78405 22.8541 8.78405H20.1091C19.5267 8.78405 18.9682 8.55269 18.5563 8.14086C18.1445 7.72904 17.9131 7.17048 17.9131 6.58807C17.9131 6.00566 18.1445 5.44711 18.5563 5.03528C18.9682 4.62345 19.5267 4.39209 20.1091 4.39209H22.8541C22.9997 4.39209 23.1393 4.44993 23.2423 4.55289C23.3453 4.65585 23.4031 4.79549 23.4031 4.94109Z" fill="#5BDCB7"/>
<path d="M21.284 9.33318C20.186 9.33318 19.604 9.41553 18.9507 8.9983C19.0386 7.97717 18.8025 8.78419 20.1091 8.78419H21.2071L21.284 9.33318Z" fill="#14CC98"/>
<path d="M25.0501 6.58736C25.0501 7.02417 24.8765 7.44309 24.5677 7.75196C24.2588 8.06083 23.8399 8.23435 23.4031 8.23435V4.94038C23.8399 4.94038 24.2588 5.1139 24.5677 5.42277C24.8765 5.73164 25.0501 6.15056 25.0501 6.58736Z" fill="#FFCC66"/>
<path d="M24.8085 7.44461C24.5506 7.60218 24.2543 7.68575 23.952 7.68616V5.04001C24.1822 5.12197 24.3913 5.25414 24.5641 5.42693C24.7369 5.59971 24.8691 5.80878 24.9511 6.03899C25.0331 6.26919 25.0628 6.51475 25.0382 6.75787C25.0135 7.00099 24.935 7.23557 24.8085 7.44461Z" fill="#FFDE76"/>
<path d="M19.011 7.13688H15.717C15.5714 7.13688 15.4318 7.07904 15.3288 6.97608C15.2258 6.87312 15.168 6.73348 15.168 6.58788C15.168 6.44228 15.2258 6.30264 15.3288 6.19968C15.4318 6.09673 15.5714 6.03889 15.717 6.03889H19.011C19.1566 6.03889 19.2962 6.09673 19.3992 6.19968C19.5021 6.30264 19.56 6.44228 19.56 6.58788C19.56 6.73348 19.5021 6.87312 19.3992 6.97608C19.2962 7.07904 19.1566 7.13688 19.011 7.13688Z" fill="#232A28"/>
<path d="M27.7949 21.9599H20.109C22.5191 15.921 22.2281 16.47 22.4862 16.47C23.9106 16.517 25.2608 17.1161 26.2515 18.1406C27.2422 19.1651 27.7957 20.5347 27.7949 21.9599Z" fill="#14CC98"/>
<path d="M27.6853 20.8618H20.5484L22.3052 16.4698C23.5708 16.4696 24.7976 16.9066 25.778 17.7069C26.7584 18.5073 27.4322 19.6218 27.6853 20.8618Z" fill="#5BDCB7"/>
<path d="M11.3251 21.9598C11.3251 22.8334 10.9781 23.6712 10.3604 24.289C9.74263 24.9067 8.9048 25.2537 8.03118 25.2537C7.15757 25.2537 6.31973 24.9067 5.70199 24.289C5.08426 23.6712 4.73721 22.8334 4.73721 21.9598H11.3251Z" fill="#2E413C"/>
<path d="M26.0987 22.5094C25.4948 26.1547 20.2135 26.1492 19.6096 22.5094H26.0987Z" fill="#2E413C"/>
<path d="M9.12905 21.9598C9.12905 22.251 9.01337 22.5303 8.80746 22.7362C8.60155 22.9421 8.32227 23.0578 8.03106 23.0578C7.73986 23.0578 7.46058 22.9421 7.25467 22.7362C7.04876 22.5303 6.93307 22.251 6.93307 21.9598H9.12905Z" fill="#7C7D7D"/>
<path d="M23.8037 22.5094C23.7071 22.6758 23.5686 22.8139 23.4019 22.9099C23.2352 23.0059 23.0463 23.0564 22.8539 23.0564C22.6615 23.0564 22.4726 23.0059 22.3059 22.9099C22.1392 22.8139 22.0007 22.6758 21.9041 22.5094H23.8037Z" fill="#7C7D7D"/>
<path d="M2.54117 6.58783H10.2271V13.1758H2.54117V6.58783Z" fill="white"/>
<path d="M10.2272 6.58783V12.0778H6.93319C6.35078 12.0778 5.79223 11.8464 5.3804 11.4346C4.96857 11.0228 4.73721 10.4642 4.73721 9.8818V6.58783H10.2272Z" fill="#F2F7F6"/>
<path d="M13.5211 13.1758H10.2271V10.9798C11.2757 10.9798 12.4945 10.8096 13.2247 12.0778C13.4182 12.4114 13.5204 12.7901 13.5211 13.1758Z" fill="#232A28"/>
<path d="M13.2247 12.0778H10.2271V10.9798C11.2757 10.9798 12.4945 10.8096 13.2247 12.0778Z" fill="#2E413C"/>
<path d="M7.48211 6.58783V9.8818L6.38412 9.3328L5.28613 9.8818V6.58783H7.48211Z" fill="#5BDCB7"/>
<path d="M23.4031 4.94109V7.68606H22.8541C21.9804 7.68606 21.1426 7.33902 20.5249 6.72128C19.9071 6.10354 19.5601 5.26571 19.5601 4.39209H22.8541C22.9997 4.39209 23.1393 4.44993 23.2423 4.55289C23.3452 4.65585 23.4031 4.79549 23.4031 4.94109Z" fill="#8CE6CD"/>
<path d="M19.56 4.94147C19.1483 4.94147 19.2252 4.90304 17.4574 1.94945C17.3927 1.82891 17.3754 1.68857 17.4088 1.55592C17.4422 1.42327 17.5239 1.30786 17.6379 1.2323C17.7519 1.15674 17.8901 1.12647 18.0253 1.14742C18.1604 1.16837 18.2829 1.23903 18.3687 1.34556L20.0157 4.09053C20.0701 4.1731 20.1012 4.26882 20.1056 4.36758C20.1101 4.46634 20.0879 4.56449 20.0412 4.65164C19.9945 4.7388 19.9252 4.81174 19.8405 4.86275C19.7558 4.91376 19.6589 4.94096 19.56 4.94147Z" fill="#232A28"/>
<path d="M17.3641 2.19598H15.7171V0H17.3641C17.6553 0 17.9346 0.115681 18.1405 0.321594C18.3464 0.527507 18.4621 0.806784 18.4621 1.09799C18.4621 1.38919 18.3464 1.66847 18.1405 1.87439C17.9346 2.0803 17.6553 2.19598 17.3641 2.19598Z" fill="#5BDCB7"/>
<path d="M13.5211 17.0188V21.9597H6.38416V19.7637C6.38416 19.0357 6.67336 18.3375 7.18814 17.8228C7.70292 17.308 8.40112 17.0188 9.12913 17.0188H13.5211Z" fill="#5BDCB7"/>
<path d="M9.12924 17.0188C8.63658 17.022 8.15386 17.1577 7.73174 17.4118C7.30962 17.6658 6.96365 18.0288 6.73013 18.4626C7.54265 18.0179 7.63597 18.1168 12.4232 18.1168V21.9597H13.5212V17.0188H9.12924Z" fill="#8CE6CD"/>
<path d="M7.48222 6.58783V8.78381H6.93322C6.64202 8.78381 6.36274 8.66813 6.15683 8.46221C5.95092 8.2563 5.83524 7.97702 5.83524 7.68582V6.58783H7.48222Z" fill="#8CE6CD"/>
<path d="M23.952 21.9598C23.9516 22.1526 23.9005 22.342 23.8037 22.5088H21.9042C21.8074 22.342 21.7563 22.1526 21.756 21.9598H23.952Z" fill="#747575"/>
<path d="M21.7561 21.9598C21.7564 22.1526 21.8075 22.342 21.9043 22.5088H19.6095C19.5762 22.3277 19.5597 22.1439 19.5601 21.9598H21.7561Z" fill="#232A28"/>
<path d="M26.1479 21.9598C26.1483 22.1439 26.1317 22.3277 26.0985 22.5088H23.8037C23.9004 22.342 23.9516 22.1526 23.9519 21.9598H26.1479Z" fill="#232A28"/>
<path d="M9.12905 21.9598C9.12871 22.1526 9.07759 22.342 8.98082 22.5088H7.0813C6.98454 22.342 6.93342 22.1526 6.93307 21.9598H9.12905Z" fill="#747575"/>
<path d="M6.9332 21.9598C6.93354 22.1526 6.98467 22.342 7.08143 22.5088H4.78663C4.75336 22.3277 4.73682 22.1439 4.73722 21.9598H6.9332Z" fill="#232A28"/>
<path d="M11.325 21.9598C11.3254 22.1439 11.3089 22.3277 11.2756 22.5088H8.9808C9.07757 22.342 9.12869 22.1526 9.12903 21.9598H11.325Z" fill="#232A28"/>
</svg>
