<svg width="20" height="20" viewBox="0 0 20 20" fill="none" xmlns="http://www.w3.org/2000/svg">
<path d="M20 10.0001C20 15.5229 15.5229 20.0001 10.0001 20.0001C4.47719 20.0001 0 15.5229 0 10.0001C0 4.47711 4.47719 0 10.0001 0C15.5229 0 20 4.47711 20 10.0001Z" fill="#4279BD"/>
<path d="M16.4079 14.6992L12.804 2.8125L10.025 12.0929L9.99971 12.1147L9.97654 12.0929L7.19362 2.8125L3.59039 14.6992H4.265C4.265 14.6992 4.7216 12.6316 5.46196 11.3968C5.86261 10.7268 6.48585 10.1765 7.31517 10.1918C7.89432 10.2054 8.39952 10.5277 9.03361 11.4139C9.41266 11.9462 9.99722 13.2997 9.99722 13.2997C9.99722 13.2997 10.5854 11.9462 10.9643 11.4139C11.6005 10.5277 12.1015 10.2054 12.6869 10.1918C13.5137 10.1765 14.1366 10.7268 14.533 11.3968C15.2735 12.6316 15.7324 14.6992 15.7324 14.6992H16.4079Z" fill="white"/>
</svg>
