<svg width="11" height="10" viewBox="0 0 11 10" fill="none" xmlns="http://www.w3.org/2000/svg">
<path fill-rule="evenodd" clip-rule="evenodd" d="M7.45574 9.44615C5.50312 10.6543 3.09726 9.67225 1.96276 8.53632C0.0124136 6.58352 0.0124136 3.4174 1.96276 1.4646C3.9131 -0.4882 7.07524 -0.4882 9.02558 1.4646C10.2084 2.6489 11.1455 5.0139 9.93464 6.96474C9.86759 7.07277 9.83406 7.12679 9.81766 7.16802C9.7864 7.24661 9.77722 7.30695 9.78368 7.39129C9.78707 7.43554 9.80001 7.48553 9.82589 7.58551C9.98871 8.21446 10.0701 8.52894 10.0241 8.7555C9.94414 9.14872 9.63721 9.45603 9.24449 9.53606C9.01821 9.58217 8.70413 9.50066 8.07597 9.33764C7.97615 9.31173 7.92622 9.29878 7.88217 9.29537C7.79794 9.28885 7.73837 9.29786 7.65982 9.32901C7.61874 9.34529 7.56441 9.37891 7.45574 9.44615ZM6.97774 4.92935C6.97774 5.20551 7.20134 5.42939 7.47716 5.42939C7.75298 5.42939 7.97658 5.20551 7.97658 4.92935C7.97658 4.65318 7.75298 4.4293 7.47716 4.4293C7.20134 4.4293 6.97774 4.65318 6.97774 4.92935ZM4.98008 4.92935C4.98008 5.20551 5.20367 5.42939 5.47949 5.42939C5.75531 5.42939 5.97891 5.20551 5.97891 4.92935C5.97891 4.65318 5.75531 4.4293 5.47949 4.4293C5.20367 4.4293 4.98008 4.65318 4.98008 4.92935ZM3.48183 5.42939C3.20601 5.42939 2.98241 5.20551 2.98241 4.92935C2.98241 4.65318 3.20601 4.4293 3.48183 4.4293C3.75765 4.4293 3.98124 4.65318 3.98124 4.92935C3.98124 5.20551 3.75765 5.42939 3.48183 5.42939Z" fill="#5BDCB7"/>
</svg>
