<svg width="12" height="14" viewBox="0 0 12 14" fill="none" xmlns="http://www.w3.org/2000/svg">
<path fill-rule="evenodd" clip-rule="evenodd" d="M0.770719 1.8397C0.150024 2.69401 0.150024 3.91267 0.150024 6.35V7.65C0.150024 10.0873 0.150024 11.306 0.770719 12.1603C0.971178 12.4362 1.21381 12.6788 1.48972 12.8793C2.34404 13.5 3.5627 13.5 6.00002 13.5C8.43735 13.5 9.65601 13.5 10.5103 12.8793C10.7862 12.6788 11.0289 12.4362 11.2293 12.1603C11.85 11.306 11.85 10.0873 11.85 7.65V6.35C11.85 3.91267 11.85 2.69401 11.2293 1.8397C11.0289 1.56379 10.7862 1.32115 10.5103 1.12069C9.65601 0.5 8.43735 0.5 6.00002 0.5C3.5627 0.5 2.34404 0.5 1.48972 1.12069C1.21381 1.32115 0.971178 1.56379 0.770719 1.8397ZM3.40002 3.9125C3.13079 3.9125 2.91252 4.13076 2.91252 4.4C2.91252 4.66924 3.13079 4.8875 3.40002 4.8875H5.35002C5.61926 4.8875 5.83752 4.66924 5.83752 4.4C5.83752 4.13076 5.61926 3.9125 5.35002 3.9125H3.40002ZM3.40002 6.5125C3.13079 6.5125 2.91252 6.73076 2.91252 7C2.91252 7.26924 3.13079 7.4875 3.40002 7.4875H8.60002C8.86926 7.4875 9.08752 7.26924 9.08752 7C9.08752 6.73076 8.86926 6.5125 8.60002 6.5125H3.40002ZM3.40002 9.1125C3.13079 9.1125 2.91252 9.33076 2.91252 9.6C2.91252 9.86924 3.13079 10.0875 3.40002 10.0875H5.35002C5.61926 10.0875 5.83752 9.86924 5.83752 9.6C5.83752 9.33076 5.61926 9.1125 5.35002 9.1125H3.40002Z" fill="#2E413C"/>
</svg>
