<svg width="12" height="15" viewBox="0 0 12 15" fill="none" xmlns="http://www.w3.org/2000/svg">
<path d="M9.51036 1.33734C8.95183 0.839435 8.29375 0.466057 7.57984 0.242009C6.86592 0.0179607 6.11251 -0.0516295 5.36963 0.0378597C4.35096 0.158278 3.38946 0.572965 2.60275 1.2312C1.81603 1.88943 1.2382 2.76268 0.939933 3.74412C0.641668 4.72557 0.635897 5.77266 0.923327 6.75733C1.21076 7.74201 1.77893 8.62157 2.55834 9.28843C2.81486 9.52369 2.98567 9.83772 3.04377 10.1809V11.476H8.96414V10.1791C9.04043 9.80504 9.238 9.46657 9.52622 9.21619C10.0817 8.7207 10.526 8.11312 10.8297 7.43349C11.1334 6.75386 11.2896 6.0176 11.2881 5.2732C11.2866 4.52881 11.1274 3.79318 10.821 3.11478C10.5146 2.43638 10.0679 1.8306 9.51036 1.33734Z" fill="#5BDCB7"/>
<path d="M6.31935 15H5.68503C4.98406 15 4.31179 14.7215 3.81613 14.2258C3.32047 13.7302 3.04201 13.0579 3.04201 12.3569H8.96237C8.96237 13.0579 8.68391 13.7302 8.18825 14.2258C7.69259 14.7215 7.02033 15 6.31935 15Z" fill="#5BDCB7"/>
</svg>
