<svg width="14" height="12" viewBox="0 0 14 12" fill="none" xmlns="http://www.w3.org/2000/svg">
<path d="M8.11102 4.67608C8.1689 4.49206 8.40017 4.49206 8.45805 4.67608C8.60914 5.15641 9.04905 5.4963 9.56131 5.4963C9.61123 5.4963 9.64321 5.51111 9.66705 5.53016C9.69423 5.55188 9.72006 5.58735 9.73483 5.63431C9.76466 5.72915 9.73897 5.81679 9.66333 5.87355C9.25875 6.17719 9.0968 6.7068 9.24714 7.18477C9.28022 7.28991 9.24279 7.37362 9.17565 7.42401C9.14128 7.44981 9.10542 7.46102 9.07553 7.46195C9.04975 7.46275 9.01522 7.45675 8.9716 7.42401C8.56302 7.11736 8.00605 7.11736 7.59747 7.42401C7.55385 7.45674 7.51932 7.46275 7.49354 7.46195C7.46365 7.46102 7.42779 7.4498 7.39342 7.42401C7.32628 7.37362 7.28885 7.28992 7.32193 7.18477C7.47227 6.7068 7.31032 6.1772 6.90574 5.87355C6.8301 5.81679 6.80441 5.72915 6.83424 5.63431C6.84901 5.58735 6.87484 5.55188 6.90202 5.53016C6.92586 5.51111 6.95784 5.4963 7.00776 5.4963C7.52001 5.4963 7.95993 5.15641 8.11102 4.67608Z" fill="#2E413C"/>
<path fill-rule="evenodd" clip-rule="evenodd" d="M3.8986 1.49499V0.314575H3.37518C1.51112 0.314575 0 1.8257 0 3.68976C0 4.23019 0.309926 4.72273 0.797138 4.9566L1.11381 5.1086C1.86171 5.46759 1.86171 6.53249 1.11381 6.89148L0.797139 7.04348C0.309927 7.27735 0 7.76989 0 8.31032C0 10.1744 1.51112 11.6855 3.37518 11.6855H3.8986V10.5051C3.8986 10.236 4.11679 10.0178 4.38593 10.0178C4.65507 10.0178 4.87326 10.236 4.87326 10.5051V11.6855H10.5948C12.4589 11.6855 13.97 10.1744 13.97 8.31032C13.97 7.76989 13.6601 7.27735 13.1729 7.04348L12.8562 6.89148C12.1083 6.53249 12.1083 5.46759 12.8562 5.1086L13.1729 4.9566C13.6601 4.72273 13.97 4.23019 13.97 3.68976C13.97 1.8257 12.4589 0.314575 10.5948 0.314575H4.87326V1.49499C4.87326 1.76413 4.65507 1.98231 4.38593 1.98231C4.11679 1.98231 3.8986 1.76413 3.8986 1.49499ZM4.87326 3.57424C4.87326 3.3051 4.65507 3.08692 4.38593 3.08692C4.11679 3.08692 3.8986 3.3051 3.8986 3.57424V4.96041C3.8986 5.22955 4.11679 5.44774 4.38593 5.44774C4.65507 5.44774 4.87326 5.22955 4.87326 4.96041V3.57424ZM4.38593 6.55234C4.65507 6.55234 4.87326 6.77053 4.87326 7.03967V8.42584C4.87326 8.69498 4.65507 8.91316 4.38593 8.91316C4.11679 8.91316 3.8986 8.69498 3.8986 8.42584V7.03967C3.8986 6.77053 4.11679 6.55234 4.38593 6.55234ZM9.38779 4.38363C9.0438 3.29001 7.52527 3.29001 7.18128 4.38363C7.15264 4.47468 7.0771 4.52165 7.00776 4.52165C5.85411 4.52165 5.44841 5.99842 6.32069 6.65308C6.38663 6.70257 6.42157 6.79891 6.39219 6.89232C6.22432 7.426 6.44034 7.92732 6.80838 8.20354C7.1787 8.48147 7.7264 8.54586 8.18251 8.20354C8.24445 8.15705 8.32462 8.15705 8.38656 8.20354C8.84267 8.54586 9.39037 8.48147 9.76069 8.20354C10.1287 7.92732 10.3447 7.426 10.1769 6.89232C10.1475 6.79891 10.1824 6.70257 10.2484 6.65308C11.1207 5.99842 10.715 4.52165 9.56131 4.52165C9.49197 4.52165 9.41643 4.47468 9.38779 4.38363Z" fill="#2E413C"/>
</svg>
