<svg width="81" height="78" viewBox="0 0 81 78" fill="none" xmlns="http://www.w3.org/2000/svg">
<path d="M66.8958 65.3997C53.667 67.9189 57.1456 66.8407 37.1627 66.8407C29.9279 66.8407 26.0259 83.5738 11.3725 75.1095C-6.94432 64.529 -0.274917 31.9428 11.3725 34.2495C24.0925 36.7687 32.3226 33.8318 35.8842 17.7091C39.4458 1.58648 70.3219 22.8156 76.9363 38.4345C83.5507 54.0533 80.1245 62.8806 66.8958 65.3997Z" fill="#8CE6CD" fill-opacity="0.3"/>
<path d="M53.1881 30.6709H45.8834C37.4541 39.8932 36.1567 59.6246 45.8834 69.2819H61.7644C66.2318 69.2819 69.8529 65.6608 69.8529 61.1935V47.3356C68.1362 38.8781 63.3144 32.7686 53.1881 30.6709Z" fill="#5BDCB7"/>
<path d="M69.8529 38.7594V47.3356C60.6052 47.7086 52.8153 39.9171 53.1881 30.6709H61.7644C66.2318 30.6709 69.8529 34.292 69.8529 38.7594Z" fill="#8CE6CD"/>
<path d="M33.3775 35.8919C32.4496 33.9906 13.0768 46.0711 11.5966 50.0809V52.6131C13.9937 60.3837 19.5113 65.9417 28.1571 69.282H33.3775C38.6807 57.2878 38.9436 46.115 33.3775 35.8919Z" fill="#5BDCB7"/>
<path d="M11.5966 46.2671V50.0809C12.3155 49.6126 32.9494 36.1709 33.3775 35.8919C35.4618 35.192 35.4618 32.4129 33.3775 32.077C23.1358 33.673 15.5946 38.1077 11.5966 46.2671Z" fill="#8CE6CD"/>
<path d="M64.0168 6.9321C63.3121 7.44541 63.0144 8.35315 63.2846 9.18592C63.8904 11.0386 61.7648 12.5901 60.183 11.4397C59.474 10.9254 58.5168 10.9276 57.8138 11.4397C56.2336 12.5885 54.1071 11.043 54.711 9.18592C54.9807 8.35436 54.6852 7.44675 53.9787 6.9321C52.3959 5.78027 53.2139 3.28598 55.164 3.28598C56.0369 3.28598 56.8106 2.72323 57.0802 1.89233C57.6863 0.0350829 60.3126 0.036695 60.9153 1.89233C61.185 2.72323 61.9589 3.28598 62.8329 3.28598C64.7837 3.28598 65.5978 5.78161 64.0168 6.9321Z" fill="#DA8CE6"/>
<path d="M12.8884 22.9098C8.52522 22.0147 4.2524 24.8105 3.33163 29.1744C2.98544 30.8133 3.16062 32.4411 3.74553 33.8851C11.2418 30.8571 11.3532 30.8121 11.3395 30.8176C13.1234 30.0978 14.1292 28.1986 13.7232 26.3183C13.4812 25.1972 13.2207 24.0149 12.8884 22.9098Z" fill="#DA8CE6"/>
<path d="M15.929 23.9997C14.8522 23.4767 13.8054 23.0948 12.8897 22.9091C12.8892 22.9094 12.8888 22.9095 12.8884 22.9098C12.6682 23.3623 12.5403 23.9636 12.4706 24.5978C12.1995 27.0655 10.8197 29.2762 8.73971 30.6314C7.14106 31.6729 6.35799 32.183 3.74548 33.8852C4.14877 34.8811 4.74685 35.7898 5.50346 36.5543C9.8597 38.3996 17.5599 34.6271 17.5599 29.5414C18.7705 27.2063 17.4377 25.2544 15.929 23.9997Z" fill="#D57CE3"/>
<path d="M29.4166 18.7701L38.422 11.2962C37.3376 10.1776 35.9198 9.35892 34.2808 9.01353C29.9156 8.09263 25.6313 10.8712 24.6866 15.2259C26.3268 15.6803 28.0997 17.5995 29.4166 18.7701Z" fill="#DA8CE6"/>
<path d="M40.153 13.9825C39.7594 12.9819 39.1699 12.0677 38.422 11.2962L33.6208 14.4236C31.6069 15.7355 29.1319 16.089 26.8114 15.4623C26.2156 15.3014 25.5936 15.2173 24.9586 15.2173C24.868 15.2173 24.7774 15.2227 24.6867 15.2262C24.6863 15.2266 24.6859 15.2268 24.6855 15.2271C24.4869 16.1398 24.4132 17.2505 24.4568 18.4444V18.4458C24.8439 20.7418 26.1832 23.1622 28.9408 22.5704C32.9259 24.3989 40.6032 18.9113 40.153 13.9825Z" fill="#D57CE3"/>
<path d="M28.2196 20.1799L28.9407 21.2859C29.2783 26.241 21.4275 31.2086 16.7156 29.2493L15.9958 28.1433C14.8237 26.3466 15.3266 23.9383 17.131 22.7603L22.8364 19.0447C24.6382 17.8715 27.0458 18.3797 28.2196 20.1799Z" fill="#C158D1"/>
<path d="M50.0423 15.3347L49.1711 13.9952C47.6829 11.7135 44.6272 11.0674 42.3442 12.5556C10.0373 33.5989 16.7232 29.2449 12.3206 32.1128C5.86473 37.0299 7.73327 37.6336 9.10568 39.7409L9.97836 41.0791C11.4651 43.362 13.8128 44.8232 19.0744 41.3475C46.8587 23.2473 40.863 27.153 49.0974 21.7894C50.9696 20.2071 51.4147 17.4422 50.0423 15.3347Z" fill="#5BDCB7"/>
<path d="M19.0744 41.3475C16.7914 42.8343 13.7358 42.1895 12.249 39.9065L11.3763 38.5684C10.004 36.4611 10.4488 33.6955 12.3206 32.1128C12.0558 32.2853 14.1147 30.944 3.31212 37.9813C1.02915 39.4682 0.384313 42.5251 1.87119 44.8081L2.74386 46.1462C4.23074 48.4292 7.2863 49.074 9.56927 47.5872C12.8014 45.4816 48.7408 22.0906 49.0973 21.7893C48.5901 22.1198 19.0899 41.3374 19.0744 41.3475Z" fill="#14CC98"/>
<path d="M28.1571 69.282H19.685C15.2177 69.282 11.5966 65.6608 11.5966 61.1935V52.6131C20.9343 52.333 28.5245 60.1685 28.1571 69.282Z" fill="#8CE6CD"/>
<path d="M45.8834 30.6709V69.2819H33.3776V32.0772L35.5369 30.6709H45.8834Z" fill="#D57CE3"/>
<path fill-rule="evenodd" clip-rule="evenodd" d="M71.9955 20.6173C72.1249 20.2145 72.1438 19.7711 72.0262 19.3321C71.7003 18.116 70.4503 17.3943 69.2342 17.7202C68.0181 18.046 67.2965 19.296 67.6223 20.5121C67.6521 20.6233 67.6896 20.7303 67.7341 20.8328C67.3859 20.6605 67.152 20.6671 67.0231 20.6783C66.8638 20.6906 66.7196 20.7596 66.7196 20.7596C66.5937 20.8106 66.3702 20.9364 66.1406 21.3111C66.1288 21.1837 66.1061 21.0554 66.0719 20.9276C65.746 19.7115 64.496 18.9898 63.28 19.3157C62.0639 19.6415 61.3422 20.8915 61.668 22.1076C61.7879 22.5548 62.0327 22.9352 62.3548 23.2212C61.7878 23.815 61.6895 24.8526 62.3196 25.8034C63.2815 27.2545 65.8328 27.4241 68.4781 26.7154C71.1233 26.0065 73.248 24.584 73.3555 22.8463C73.427 21.6894 72.8022 20.8316 71.9955 20.6173ZM71.2635 19.5287C71.4757 20.3205 71.0057 21.1345 70.2139 21.3467C69.422 21.5588 68.608 21.0889 68.3959 20.297C68.1837 19.5052 68.6536 18.6912 69.4455 18.479C70.2373 18.2669 71.0513 18.7368 71.2635 19.5287ZM62.4416 21.8925C62.5837 22.4229 62.9958 22.8089 63.4905 22.9421C63.6723 22.972 63.8553 22.987 64.0358 22.9842C64.1102 22.976 64.185 22.9621 64.2596 22.9421C65.0514 22.7299 65.5214 21.916 65.3092 21.1241C65.097 20.3322 64.2831 19.8623 63.4912 20.0745C62.6993 20.2866 62.2294 21.1006 62.4416 21.8925Z" fill="#5BDCB7"/>
</svg>
