<svg width="87" height="78" viewBox="0 0 87 78" fill="none" xmlns="http://www.w3.org/2000/svg">
<path d="M69.1758 53.843C56.1758 56.343 65.1758 73.343 45.6758 76.843C38.6758 78.0994 25.5758 73.243 11.1758 64.843C-6.82421 54.343 -0.270176 30.0538 11.1758 32.343C23.6758 34.843 33.6758 29.843 37.1758 13.843C40.6758 -2.157 77.6758 8.843 84.1758 24.343C90.6758 39.843 82.1758 51.343 69.1758 53.843Z" fill="#8CE6CD" fill-opacity="0.3"/>
<path d="M60.6025 71.2697C59.7039 71.2697 58.843 70.7509 58.4377 69.867L48.8867 49.0495C48.3286 47.833 48.8447 46.3863 50.0395 45.8181C51.2343 45.25 52.6553 45.7752 53.2134 46.9918L62.7644 67.8093C63.3224 69.0258 62.8064 70.4726 61.6115 71.0407C61.2846 71.1962 60.9408 71.2697 60.6025 71.2697Z" fill="#B98080"/>
<path d="M53.2134 46.9918C52.6553 45.7752 51.2343 45.25 50.0395 45.8181C48.8447 46.3863 48.3286 47.833 48.8867 49.0495L55.6207 63.7272C57.0596 63.0543 58.457 62.2602 59.7988 61.3456L53.2134 46.9918Z" fill="#AE6C6C"/>
<path d="M25.3535 71.2698C25.015 71.2698 24.6713 71.1962 24.3444 71.0407C23.1496 70.4726 22.6336 69.0258 23.1916 67.8094L32.7426 46.9919C33.3007 45.7754 34.7218 45.2498 35.9165 45.8181C37.1113 46.3863 37.6274 47.8331 37.0693 49.0495L27.5183 69.867C27.1129 70.7506 26.2521 71.2698 25.3535 71.2698V71.2698Z" fill="#B98080"/>
<path d="M35.9164 45.8181C34.7218 45.2498 33.3006 45.7754 32.7426 46.9919L26.1571 61.3456C27.499 62.2604 28.8963 63.0545 30.3352 63.7272L37.0693 49.0495C37.6275 47.8332 37.1112 46.3863 35.9164 45.8181Z" fill="#AE6C6C"/>
<path d="M40.7706 2.24738H45.1854V13.4343H40.7706V2.24738Z" fill="#F7FCFB"/>
<path d="M49.1541 2.24739C49.1541 3.48852 48.1658 4.49476 46.9468 4.49476H39.0093C37.7903 4.49476 36.8019 3.48852 36.8019 2.24739C36.8018 1.00627 37.7901 3.05176e-05 39.0092 3.05176e-05H46.9466C48.1658 3.05176e-05 49.1541 1.00627 49.1541 2.24739Z" fill="#8CE6CD"/>
<path d="M46.9468 3.05176e-05H44.1298C45.3489 3.05176e-05 46.3372 1.00627 46.3372 2.24739C46.3372 3.48852 45.3489 4.49476 44.1298 4.49476H46.9468C48.1658 4.49476 49.1541 3.48852 49.1541 2.24739C49.1541 1.00627 48.1658 3.05176e-05 46.9468 3.05176e-05Z" fill="#5BDCB7"/>
<path d="M37.0513 10.3C31.7781 4.93122 23.2283 4.93122 17.955 10.3C12.6817 15.6689 12.6817 24.3734 17.955 29.7423L37.0513 10.3Z" fill="#91EDD3"/>
<path d="M68.0008 29.7422C73.2741 24.3735 73.2741 15.6688 68.0008 10.2999C62.7276 4.93116 54.1779 4.93116 48.9045 10.2999L68.0008 29.7422Z" fill="#91EDD3"/>
<path d="M68.0009 10.3C64.825 7.06661 60.4613 5.78376 56.3401 6.44497C59.0618 6.88163 61.6781 8.16463 63.7754 10.3C68.3223 14.9292 68.945 22.037 65.6507 27.3495L68.0009 29.7423C73.2742 24.3734 73.2742 15.6687 68.0009 10.3Z" fill="#5BDCB7"/>
<path d="M67.182 35.7076C67.182 13.6875 42.978 9.23035 42.978 9.23035C28.6153 9.23035 16.9722 21.0845 16.9722 35.7074C16.9722 50.3303 28.6153 62.1845 42.978 62.1845C42.978 62.1845 67.182 57.7276 67.182 35.7076Z" fill="#8CE6CD"/>
<path d="M61.3669 16.9855C55.7511 11.268 48.2061 8.71373 40.8653 9.31931C46.8001 9.80888 52.6013 12.3631 57.1415 16.9855C67.2973 27.3255 67.2973 44.0898 57.1415 54.4296C52.6013 59.052 46.8001 61.6062 40.8653 62.0958C48.2061 62.7013 55.7511 60.1471 61.3669 54.4296C71.5228 44.0898 71.5228 27.3253 61.3669 16.9855V16.9855Z" fill="#5BDCB7"/>
<path d="M61.2327 35.7076C61.2327 16.9855 42.978 15.8383 42.978 15.8383C32.1997 15.8383 23.4624 24.7341 23.4624 35.7075C23.4624 46.681 32.1999 55.5767 42.978 55.5767C42.978 55.5768 61.2327 53.3385 61.2327 35.7076V35.7076Z" fill="#F7FCFB"/>
<path d="M56.7777 21.6578C52.6086 17.4132 47.0224 15.4905 41.5695 15.8899C46.0847 16.2205 50.5084 18.1431 53.9607 21.6578C61.582 29.4172 61.582 41.9977 53.9607 49.7572C50.5086 53.2719 46.0847 55.1946 41.5695 55.5252C47.0223 55.9244 52.6085 54.0018 56.7777 49.7572C64.3989 41.9978 64.3989 29.4173 56.7777 21.6578V21.6578Z" fill="#F2F7F6"/>
<path d="M41.9216 15.8684V18.5718C41.9216 19.1659 42.3946 19.6473 42.978 19.6473C43.5614 19.6473 44.0343 19.1659 44.0343 18.5718V15.8684C43.3307 15.8298 42.6253 15.8298 41.9216 15.8684V15.8684Z" fill="#2E413C"/>
<path d="M42.978 51.768C42.3946 51.768 41.9216 52.2494 41.9216 52.8435V55.5467C42.6253 55.5853 43.3307 55.5853 44.0343 55.5467V52.8435C44.0343 52.2494 43.5614 51.768 42.978 51.768Z" fill="#2E413C"/>
<path d="M23.4919 36.7831H26.147C26.7304 36.7831 27.2033 36.3017 27.2033 35.7076C27.2033 35.1135 26.7304 34.6321 26.147 34.6321H23.4919C23.454 35.3485 23.454 36.0665 23.4919 36.7831V36.7831Z" fill="#2E413C"/>
<path d="M58.7525 35.7076C58.7525 36.3017 59.2255 36.7831 59.8089 36.7831H62.4641C62.502 36.0667 62.502 35.3485 62.4641 34.6321H59.8089C59.2255 34.6321 58.7525 35.1135 58.7525 35.7076Z" fill="#2E413C"/>
<path d="M42.978 36.783H33.6508C33.0674 36.783 32.5944 36.3017 32.5944 35.7076C32.5944 35.1134 33.0674 34.6321 33.6508 34.6321H41.9216V23.2434C41.9216 22.6493 42.3946 22.1679 42.978 22.1679C43.5614 22.1679 44.0343 22.6493 44.0343 23.2434V35.7076C44.0343 36.3015 43.5614 36.783 42.978 36.783Z" fill="#2E413C"/>
<path d="M42.978 32.1227C41.0335 32.1227 39.4571 33.7276 39.4571 35.7074C39.4571 37.6872 41.0335 39.2921 42.978 39.2921C44.9225 39.2921 46.2172 37.6872 46.2172 35.7073C46.2172 33.7276 44.9225 32.1227 42.978 32.1227V32.1227Z" fill="#8CE6CD"/>
<path d="M45.4677 33.1727C44.4895 32.1768 43.0791 31.8902 41.8513 32.3112C42.3494 32.482 42.8174 32.7686 43.2142 33.1727C44.5891 34.5726 44.5891 36.8425 43.2142 38.2424C42.8174 38.6463 42.3492 38.933 41.8513 39.1039C43.0791 39.5251 44.4895 39.2384 45.4677 38.2424C46.8427 36.8425 46.8427 34.5726 45.4677 33.1727Z" fill="#5BDCB7"/>
</svg>
