<svg width="15" height="16" viewBox="0 0 15 16" fill="none" xmlns="http://www.w3.org/2000/svg">
<path fill-rule="evenodd" clip-rule="evenodd" d="M7.16666 1.16668C3.20862 1.16668 0 4.37531 0 8.33334C0 12.2914 3.20862 15.5 7.16666 15.5C11.1247 15.5 14.3333 12.2914 14.3333 8.33334C14.3333 4.37531 11.1247 1.16668 7.16666 1.16668ZM7.66666 5.66668C7.66666 5.39054 7.4428 5.16668 7.16666 5.16668C6.89052 5.16668 6.66666 5.39054 6.66666 5.66668V8.47057C6.66666 8.6831 6.58546 8.8876 6.43967 9.04223L5.46952 10.0712C5.28009 10.2721 5.28941 10.5886 5.49033 10.778C5.69125 10.9675 6.0077 10.9581 6.19713 10.7572L7.16727 9.72823C7.48802 9.38803 7.66666 8.93813 7.66666 8.47057V5.66668Z" fill="#2E413C"/>
<path d="M3.14568 1.39045C3.36131 1.21795 3.39627 0.903301 3.22376 0.687671C3.05126 0.47204 2.73661 0.437079 2.52098 0.609584L0.854318 1.94292C0.638687 2.11542 0.603727 2.43007 0.776231 2.6457C0.948736 2.86133 1.26338 2.89629 1.47901 2.72378L3.14568 1.39045Z" fill="#2E413C"/>
<path d="M11.8123 0.609584C11.5967 0.437079 11.2821 0.47204 11.1096 0.687671C10.937 0.903301 10.972 1.21795 11.1876 1.39045L12.8543 2.72378C13.0699 2.89629 13.3846 2.86133 13.5571 2.6457C13.7296 2.43007 13.6946 2.11542 13.479 1.94292L11.8123 0.609584Z" fill="#2E413C"/>
</svg>
