<svg width="11" height="11" viewBox="0 0 11 11" fill="none" xmlns="http://www.w3.org/2000/svg">
<path d="M5.85106 0.351064C5.85106 0.157177 5.69389 0 5.5 0C5.30611 0 5.14894 0.157177 5.14894 0.351064V1.28723C5.14894 1.48112 5.30611 1.6383 5.5 1.6383C5.69389 1.6383 5.85106 1.48112 5.85106 1.28723V0.351064Z" fill="#5BDCB7"/>
<path d="M2.10739 1.61091C1.97029 1.47381 1.74801 1.47381 1.61091 1.61091C1.47381 1.74801 1.47381 1.97029 1.61091 2.10739L2.27289 2.76936C2.40998 2.90646 2.63227 2.90646 2.76936 2.76936C2.90646 2.63227 2.90646 2.40998 2.76936 2.27288L2.10739 1.61091Z" fill="#5BDCB7"/>
<path d="M9.38909 2.10739C9.52619 1.97029 9.52619 1.74801 9.38909 1.61091C9.25199 1.47381 9.02971 1.47381 8.89261 1.61091L8.23064 2.27288C8.09354 2.40998 8.09354 2.63226 8.23064 2.76936C8.36773 2.90646 8.59002 2.90646 8.72711 2.76936L9.38909 2.10739Z" fill="#5BDCB7"/>
<path d="M5.5 2.34043C3.75502 2.34043 2.34043 3.75502 2.34043 5.5C2.34043 7.24499 3.75502 8.65957 5.5 8.65957C7.24499 8.65957 8.65957 7.24499 8.65957 5.5C8.65957 3.75502 7.24499 2.34043 5.5 2.34043Z" fill="#5BDCB7"/>
<path d="M0.351064 5.14894C0.157177 5.14894 0 5.30611 0 5.5C0 5.69389 0.157177 5.85106 0.351064 5.85106H1.28723C1.48112 5.85106 1.6383 5.69389 1.6383 5.5C1.6383 5.30611 1.48112 5.14894 1.28723 5.14894H0.351064Z" fill="#5BDCB7"/>
<path d="M9.71277 5.14894C9.51888 5.14894 9.3617 5.30611 9.3617 5.5C9.3617 5.69389 9.51888 5.85106 9.71277 5.85106H10.6489C10.8428 5.85106 11 5.69389 11 5.5C11 5.30611 10.8428 5.14894 10.6489 5.14894H9.71277Z" fill="#5BDCB7"/>
<path d="M2.76936 8.72711C2.90646 8.59002 2.90646 8.36773 2.76936 8.23064C2.63227 8.09354 2.40998 8.09354 2.27288 8.23064L1.61091 8.89261C1.47381 9.02971 1.47381 9.25199 1.61091 9.38909C1.74801 9.52619 1.97029 9.52619 2.10739 9.38909L2.76936 8.72711Z" fill="#5BDCB7"/>
<path d="M8.72711 8.23064C8.59002 8.09354 8.36773 8.09354 8.23064 8.23064C8.09354 8.36773 8.09354 8.59002 8.23064 8.72711L8.89261 9.38909C9.02971 9.52619 9.25199 9.52619 9.38909 9.38909C9.52619 9.25199 9.52619 9.02971 9.38909 8.89261L8.72711 8.23064Z" fill="#5BDCB7"/>
<path d="M5.85106 9.71277C5.85106 9.51888 5.69389 9.3617 5.5 9.3617C5.30611 9.3617 5.14894 9.51888 5.14894 9.71277V10.6489C5.14894 10.8428 5.30611 11 5.5 11C5.69389 11 5.85106 10.8428 5.85106 10.6489V9.71277Z" fill="#5BDCB7"/>
</svg>
