<svg width="12" height="14" viewBox="0 0 12 14" fill="none" xmlns="http://www.w3.org/2000/svg">
<path fill-rule="evenodd" clip-rule="evenodd" d="M0.620695 1.8397C0 2.69401 0 3.91267 0 6.35V7.65C0 10.0873 0 11.306 0.620695 12.1603C0.821153 12.4362 1.06379 12.6788 1.3397 12.8793C2.19401 13.5 3.41267 13.5 5.85 13.5C8.28733 13.5 9.50599 13.5 10.3603 12.8793C10.6362 12.6788 10.8788 12.4362 11.0793 12.1603C11.7 11.306 11.7 10.0873 11.7 7.65V6.35C11.7 3.91267 11.7 2.69401 11.0793 1.8397C10.8788 1.56379 10.6362 1.32115 10.3603 1.12069C9.50599 0.5 8.28733 0.5 5.85 0.5C3.41267 0.5 2.19401 0.5 1.3397 1.12069C1.06379 1.32115 0.821153 1.56379 0.620695 1.8397ZM3.25 3.9125C2.98076 3.9125 2.7625 4.13076 2.7625 4.4C2.7625 4.66924 2.98076 4.8875 3.25 4.8875H8.45C8.71924 4.8875 8.9375 4.66924 8.9375 4.4C8.9375 4.13076 8.71924 3.9125 8.45 3.9125H3.25ZM3.25 6.5125C2.98076 6.5125 2.7625 6.73076 2.7625 7C2.7625 7.26924 2.98076 7.4875 3.25 7.4875H8.45C8.71924 7.4875 8.9375 7.26924 8.9375 7C8.9375 6.73076 8.71924 6.5125 8.45 6.5125H3.25ZM3.25 9.1125C2.98076 9.1125 2.7625 9.33076 2.7625 9.6C2.7625 9.86924 2.98076 10.0875 3.25 10.0875H5.2C5.46924 10.0875 5.6875 9.86924 5.6875 9.6C5.6875 9.33076 5.46924 9.1125 5.2 9.1125H3.25Z" fill="#2E413C"/>
</svg>
