<svg width="10" height="14" viewBox="0 0 10 14" fill="none" xmlns="http://www.w3.org/2000/svg">
<path fill-rule="evenodd" clip-rule="evenodd" d="M6.67208 12.0735C8.10156 10.2506 9.90218 7.60229 9.90218 5.8278C9.90218 2.88534 7.6855 0.5 4.95109 0.5C2.21668 0.5 0 2.88534 0 5.8278C0 7.60229 1.80062 10.2506 3.2301 12.0735C3.97588 13.0245 4.34877 13.5 4.95109 13.5C5.55341 13.5 5.9263 13.0245 6.67208 12.0735ZM4.95109 7.92664C3.92569 7.92664 3.09443 7.09538 3.09443 6.06998C3.09443 5.04457 3.92569 4.21332 4.95109 4.21332C5.97649 4.21332 6.80775 5.04457 6.80775 6.06998C6.80775 7.09538 5.97649 7.92664 4.95109 7.92664Z" fill="#2E413C"/>
</svg>
