<svg width="8" height="10" viewBox="0 0 8 10" fill="none" xmlns="http://www.w3.org/2000/svg">
<path fill-rule="evenodd" clip-rule="evenodd" d="M5.13237 8.90267C6.23197 7.50047 7.61706 5.4633 7.61706 4.09831C7.61706 1.83488 5.91192 0 3.80853 0C1.70514 0 0 1.83488 0 4.09831C0 5.4633 1.38509 7.50047 2.48469 8.90267C3.05837 9.63422 3.34521 10 3.80853 10C4.27186 10 4.55869 9.63422 5.13237 8.90267ZM3.80853 5.7128C3.01976 5.7128 2.38033 5.07337 2.38033 4.2846C2.38033 3.49582 3.01976 2.8564 3.80853 2.8564C4.5973 2.8564 5.23673 3.49582 5.23673 4.2846C5.23673 5.07337 4.5973 5.7128 3.80853 5.7128Z" fill="#5BDCB7"/>
</svg>
