<svg width="25" height="25" viewBox="0 0 25 25" fill="none" xmlns="http://www.w3.org/2000/svg">
<path fill-rule="evenodd" clip-rule="evenodd" d="M0 12.5C0 5.59644 5.59644 0 12.5 0C19.4036 0 25 5.59644 25 12.5C25 16.0447 23.5234 19.2461 21.1541 21.5198C18.9089 23.6745 15.8583 25 12.5 25C9.14165 25 6.09108 23.6745 3.84594 21.5198C1.47662 19.2461 0 16.0447 0 12.5ZM19.5734 20.603C19.0722 19.1037 17.6557 18.0233 15.9884 18.0233H9.01163C7.34434 18.0233 5.9278 19.1037 5.42659 20.603C7.31805 22.2556 9.79142 23.2558 12.5 23.2558C15.2086 23.2558 17.6819 22.2556 19.5734 20.603ZM12.5 3.48837C9.44959 3.48837 6.97674 5.96122 6.97674 9.01163C6.97674 12.062 9.44959 14.5349 12.5 14.5349C15.5504 14.5349 18.0233 12.062 18.0233 9.01163C18.0233 5.96122 15.5504 3.48837 12.5 3.48837Z" fill="#2E413C"/>
</svg>
